<?xml version="1.0" standalone="no"?>
<!DOCTYPE svg PUBLIC "-//W3C//DTD SVG 20010904//EN"
 "http://www.w3.org/TR/2001/REC-SVG-20010904/DTD/svg10.dtd">
<svg version="1.0" xmlns="http://www.w3.org/2000/svg"
 width="3896.000000pt" height="3896.000000pt" viewBox="0 0 3896.000000 3896.000000"
 preserveAspectRatio="xMidYMid meet">
<metadata>
Created by potrace 1.14, written by Peter Selinger 2001-2017
</metadata>
<g transform="translate(0.000000,3896.000000) scale(0.100000,-0.100000)"
fill="#000000" stroke="none">
<path d="M35706 34885 c-4 -11 -21 -15 -58 -15 -72 0 -137 -33 -221 -110 -64
-59 -68 -65 -65 -104 1 -22 1 -73 0 -112 l-2 -71 -47 -9 c-46 -9 -48 -10 -51
-46 -2 -29 -8 -38 -22 -38 -10 0 -34 -19 -54 -42 -28 -35 -37 -41 -47 -30 -7
6 -19 12 -26 12 -11 0 -11 -4 -1 -20 7 -10 10 -21 8 -23 -45 -41 -146 -107
-158 -102 -19 7 -48 -12 -139 -92 -40 -35 -77 -63 -82 -63 -13 0 -91 -52 -91
-61 0 -5 7 -12 16 -17 13 -7 11 -13 -16 -35 -17 -15 -39 -27 -48 -27 -9 0 -32
-9 -51 -21 -27 -16 -32 -25 -28 -45 4 -21 -4 -32 -47 -66 -39 -31 -52 -37 -54
-25 -5 24 -41 31 -61 13 -10 -9 -25 -16 -34 -16 -9 0 -17 -6 -17 -14 0 -8 -11
-17 -25 -20 -16 -4 -27 -15 -30 -34 -9 -42 -20 -57 -44 -60 -14 -2 -21 2 -21
12 0 20 -19 20 -48 0 -30 -21 -28 -44 3 -44 14 0 25 -4 25 -9 0 -15 -60 -61
-79 -61 -26 0 -33 11 -15 25 9 6 15 19 13 29 -3 15 -12 11 -51 -24 -27 -23
-48 -48 -48 -56 0 -9 -11 -14 -29 -14 -16 0 -31 -6 -35 -15 -3 -8 -12 -15 -21
-15 -8 0 -15 -9 -15 -20 0 -15 -7 -20 -27 -20 -35 0 -75 -24 -131 -78 -24 -23
-53 -42 -64 -42 -11 0 -22 -8 -25 -20 -3 -11 -20 -24 -39 -30 -19 -6 -53 -27
-76 -46 -22 -19 -57 -42 -77 -50 -40 -17 -105 -64 -98 -71 3 -2 19 3 37 12 18
9 34 14 37 11 4 -3 -18 -17 -48 -30 -30 -13 -81 -46 -114 -74 -33 -27 -76 -59
-94 -70 -40 -24 -121 -88 -189 -148 -26 -23 -56 -43 -67 -45 -10 -2 -33 -23
-50 -45 -20 -28 -43 -45 -68 -53 -21 -7 -42 -22 -48 -34 -6 -12 -35 -40 -65
-61 -30 -22 -54 -42 -54 -46 0 -3 -15 -23 -34 -43 -25 -27 -42 -37 -64 -37
-17 0 -32 -6 -36 -15 -3 -8 -16 -15 -28 -15 -13 0 -49 -19 -81 -43 -31 -23
-77 -55 -102 -70 -24 -15 -47 -37 -50 -47 -5 -15 -12 -19 -29 -14 -30 7 -76
-30 -76 -62 0 -21 -4 -24 -20 -19 -29 9 -69 -17 -128 -82 -29 -32 -73 -79 -99
-104 -36 -36 -44 -50 -39 -67 6 -18 1 -24 -27 -36 -21 -8 -38 -24 -42 -38 -12
-40 -46 -68 -81 -68 -38 0 -71 -27 -55 -43 17 -17 13 -26 -9 -20 -26 7 -80
-15 -80 -33 0 -8 5 -14 10 -14 6 0 10 -7 10 -16 0 -12 -6 -15 -25 -10 -35 9
-95 -18 -95 -43 0 -27 -52 -68 -103 -82 -77 -20 -105 -38 -146 -89 -23 -29
-41 -56 -41 -61 0 -5 -8 -9 -17 -9 -29 0 -106 -42 -150 -81 -22 -21 -60 -47
-83 -59 -23 -12 -49 -34 -58 -51 -9 -16 -22 -29 -29 -29 -6 0 -19 -8 -29 -17
-15 -16 -15 -17 2 -24 15 -6 12 -8 -12 -8 -30 -1 -74 -35 -74 -58 0 -14 -43
-63 -56 -63 -20 0 -161 -69 -174 -85 -7 -8 -17 -36 -21 -62 -11 -57 -15 -62
-34 -37 -14 18 -14 18 -15 -8 0 -14 -3 -34 -7 -44 -6 -16 -7 -16 -13 2 -7 17
-11 15 -45 -21 -20 -22 -41 -50 -45 -62 -6 -14 -21 -24 -45 -29 -19 -3 -35
-10 -35 -14 0 -4 -9 -17 -20 -30 -11 -13 -20 -30 -21 -39 0 -10 -2 -12 -6 -3
-2 6 -12 12 -20 12 -11 0 -14 -7 -9 -25 7 -28 -13 -43 -79 -60 -29 -8 -48 -22
-70 -52 -16 -23 -36 -41 -44 -40 -14 2 -61 -56 -61 -74 0 -5 7 -9 15 -9 31 0
14 -19 -22 -26 -28 -5 -55 -23 -103 -69 -36 -34 -79 -70 -96 -80 -17 -10 -46
-41 -63 -70 -26 -42 -36 -51 -54 -48 -18 4 -42 -16 -117 -92 -52 -53 -108
-103 -125 -112 -16 -9 -52 -35 -79 -59 -27 -23 -63 -45 -81 -48 -37 -7 -115
-84 -142 -140 -18 -38 -53 -56 -110 -56 -21 0 -35 -6 -38 -15 -14 -43 -17 -50
-22 -37 -7 18 -21 14 -28 -9 -4 -11 -30 -32 -61 -47 -30 -14 -54 -32 -54 -38
0 -23 -31 -44 -66 -44 -29 0 -39 -6 -66 -45 -29 -42 -58 -59 -135 -81 -7 -2
-13 -12 -13 -23 0 -16 -8 -20 -42 -23 -36 -2 -44 -7 -46 -25 -2 -13 -8 -23
-14 -23 -6 0 -32 -16 -58 -35 -33 -24 -54 -50 -69 -85 -15 -35 -27 -50 -41
-50 -10 0 -32 -11 -48 -25 -17 -14 -37 -25 -46 -25 -18 0 -46 -39 -49 -68 -1
-15 -8 -20 -26 -19 -21 2 -28 -5 -42 -43 l-17 -45 -63 -8 c-65 -8 -68 -10
-113 -72 -10 -15 -38 -35 -61 -45 -51 -22 -67 -44 -54 -77 8 -22 6 -23 -31
-23 -21 0 -42 -5 -45 -11 -4 -5 -30 -21 -58 -33 -64 -29 -111 -64 -141 -105
-13 -17 -25 -29 -28 -26 -3 3 -20 -6 -39 -20 -19 -14 -46 -33 -61 -42 -17 -11
-28 -27 -28 -40 0 -16 -9 -24 -37 -33 -21 -7 -55 -25 -75 -41 -20 -16 -42 -29
-48 -29 -6 0 -15 -12 -21 -27 -7 -21 -24 -34 -67 -52 -36 -16 -79 -46 -117
-84 -96 -94 -108 -104 -154 -127 -24 -12 -46 -30 -48 -41 -3 -10 -9 -16 -15
-13 -5 3 -27 -11 -49 -30 -22 -20 -64 -47 -93 -60 -53 -24 -72 -44 -105 -109
-13 -25 -25 -34 -59 -42 -35 -7 -42 -13 -38 -27 3 -10 9 -28 13 -40 l6 -23
-22 20 -23 20 -71 -39 c-96 -52 -137 -83 -137 -105 0 -44 -136 -93 -266 -95
l-91 -1 -46 38 c-26 21 -47 43 -47 49 0 15 -41 70 -48 64 -3 -3 -23 8 -45 24
-23 17 -48 30 -57 30 -9 0 -37 14 -63 31 -41 27 -50 29 -83 20 -46 -13 -70 -1
-79 39 -5 25 -12 30 -35 30 -16 0 -32 5 -36 11 -3 6 -23 18 -43 26 -20 8 -49
24 -64 35 -26 19 -33 19 -68 8 -36 -12 -42 -12 -69 8 -24 18 -43 22 -102 22
-90 0 -166 19 -255 63 -93 46 -130 54 -351 72 -133 11 -207 21 -240 34 -26 10
-72 22 -102 25 -30 4 -88 16 -128 27 -53 14 -107 19 -205 20 -72 0 -154 5
-182 9 -27 5 -89 16 -137 24 -49 8 -92 17 -97 20 -15 9 -200 47 -276 57 -40 5
-89 19 -115 33 -28 15 -78 28 -135 36 -49 7 -123 25 -163 41 -40 16 -86 29
-102 29 -16 0 -51 8 -77 19 -26 10 -64 22 -83 26 -19 4 -43 14 -52 22 -9 8
-81 26 -160 39 -79 14 -168 31 -198 38 -30 8 -91 17 -134 21 -44 3 -107 12
-140 20 -34 7 -97 16 -141 20 -44 3 -112 11 -151 16 -38 5 -146 12 -240 14
-164 4 -628 45 -729 64 -27 6 -97 21 -155 35 -104 25 -241 39 -475 51 -242 12
-541 36 -579 46 -41 11 -194 3 -521 -26 -88 -8 -253 -17 -368 -20 -170 -5
-218 -10 -264 -27 -31 -10 -104 -25 -163 -33 -66 -8 -122 -21 -148 -34 -23
-12 -68 -28 -100 -36 -63 -16 -362 -65 -547 -90 -66 -8 -158 -24 -205 -34 -47
-11 -110 -22 -140 -26 -30 -4 -80 -13 -111 -21 -30 -7 -108 -18 -173 -24 -64
-6 -138 -15 -164 -20 -51 -12 -218 -66 -242 -79 -42 -23 -294 -102 -355 -111
-38 -6 -110 -19 -160 -30 -122 -27 -198 -38 -406 -60 -109 -11 -186 -24 -200
-33 -13 -8 -40 -17 -59 -21 -19 -4 -51 -17 -70 -30 -19 -13 -61 -31 -93 -40
-31 -9 -83 -32 -116 -51 -33 -19 -62 -35 -66 -35 -3 0 -26 -13 -50 -30 -24
-16 -48 -30 -54 -30 -5 0 -23 -11 -39 -25 -36 -30 -92 -55 -125 -55 -12 0 -85
-31 -161 -70 -76 -38 -168 -79 -205 -91 -68 -23 -87 -38 -169 -137 -24 -29
-49 -52 -57 -52 -27 0 -83 60 -119 129 -37 70 -64 97 -123 120 -40 16 -56 35
-77 92 -28 75 -137 212 -204 258 -37 25 -64 51 -70 68 -5 16 -33 54 -61 85
-56 61 -232 200 -277 219 -64 27 -152 71 -194 98 -25 16 -52 30 -61 30 -35 2
-114 57 -236 166 -106 94 -137 116 -181 129 -29 8 -69 28 -90 44 -20 16 -55
38 -77 50 -22 11 -49 30 -60 42 -11 13 -45 39 -75 58 -30 19 -91 70 -135 112
-44 43 -96 86 -115 95 -19 10 -53 33 -75 50 -22 18 -69 47 -105 65 -61 31
-133 79 -324 218 -44 31 -127 103 -185 158 -64 61 -128 112 -161 129 -60 30
-137 85 -180 128 -16 15 -33 27 -38 27 -6 0 -48 30 -94 66 -45 37 -112 86
-148 109 -36 23 -87 68 -113 100 -56 69 -229 231 -307 288 -30 22 -82 65 -115
95 -33 30 -91 76 -130 102 -38 26 -81 60 -95 75 -32 35 -132 106 -190 135 -25
13 -67 42 -95 65 -27 23 -66 50 -85 60 -19 10 -50 31 -68 46 -34 30 -37 31
-109 34 -33 1 -56 13 -115 57 -41 31 -80 64 -88 73 -18 22 -73 49 -162 81 -81
30 -138 62 -185 106 -26 25 -43 31 -101 38 -58 6 -78 13 -117 44 -33 25 -54
34 -70 30 -13 -3 -27 1 -34 10 -8 9 -22 16 -32 16 -10 0 -24 8 -31 18 -7 11
-29 24 -49 31 -19 6 -67 32 -105 57 -38 26 -91 55 -118 65 -27 10 -61 30 -76
44 -15 14 -50 34 -77 45 -28 10 -93 45 -144 76 -52 31 -184 104 -294 161 -110
58 -209 113 -220 123 -11 10 -59 36 -107 59 -49 23 -103 55 -121 71 -18 16
-46 32 -63 36 -16 4 -46 21 -66 39 -23 19 -60 37 -93 45 -31 7 -70 24 -87 37
-18 13 -39 23 -48 23 -25 0 -187 82 -255 129 -33 22 -68 41 -78 41 -11 0 -31
8 -45 18 -15 10 -54 28 -87 42 -33 13 -89 42 -125 65 -36 23 -84 52 -108 64
-108 55 -211 138 -439 353 -34 32 -68 58 -77 58 -9 0 -16 4 -16 10 0 5 -18 19
-41 31 -23 11 -60 37 -82 58 -23 20 -88 70 -145 110 -56 40 -130 95 -165 123
-98 81 -394 387 -503 520 -144 177 -155 188 -170 188 -7 0 -57 23 -111 50 -54
28 -129 60 -167 70 -40 12 -86 33 -108 50 -58 47 -99 60 -187 60 -165 0 -323
-36 -391 -89 -19 -15 -67 -48 -106 -74 -87 -57 -163 -136 -285 -300 -121 -161
-166 -238 -181 -309 -7 -32 -17 -58 -24 -58 -25 0 -38 -33 -40 -100 -1 -53 -7
-78 -26 -112 -37 -64 -49 -126 -58 -303 -6 -128 -12 -171 -29 -214 -29 -72
-43 -307 -34 -558 4 -103 7 -262 5 -353 -2 -172 -41 -588 -69 -748 -15 -87
-15 -93 1 -105 16 -12 17 -20 7 -72 -6 -32 -11 -117 -11 -189 0 -71 -6 -166
-14 -210 -8 -45 -17 -139 -20 -211 -4 -71 -17 -206 -31 -300 -36 -257 -45
-359 -60 -740 -11 -279 -17 -359 -30 -395 -9 -25 -20 -84 -24 -131 -4 -47 -11
-90 -14 -96 -4 -6 -14 -84 -23 -174 -15 -160 -32 -955 -23 -1129 8 -156 2
-681 -9 -820 -28 -329 -41 -664 -32 -765 47 -499 869 -6827 946 -7280 15 -89
66 -258 84 -280 6 -7 17 -31 25 -55 9 -24 29 -65 44 -90 16 -25 34 -70 40
-101 19 -108 121 -299 223 -419 47 -55 103 -148 112 -186 4 -16 23 -48 43 -72
19 -24 46 -71 59 -105 13 -34 42 -93 64 -132 68 -120 240 -477 266 -552 24
-70 153 -342 214 -453 16 -30 30 -62 30 -71 0 -9 7 -22 15 -29 22 -18 18 -39
-8 -45 -29 -6 -345 -51 -422 -60 -33 -3 -161 -19 -285 -36 -124 -16 -299 -36
-390 -44 -219 -21 -802 -37 -1346 -38 l-441 0 -34 25 c-19 14 -63 41 -99 59
l-65 34 -155 0 c-158 -1 -304 -21 -360 -50 -15 -8 -73 -60 -130 -117 l-103
-103 6 -110 c9 -162 29 -250 71 -315 92 -143 122 -170 235 -210 95 -34 131
-35 1241 -34 815 1 1190 12 1308 39 35 9 119 20 185 25 67 6 160 17 207 25 47
7 117 17 155 20 39 4 104 15 145 25 120 30 273 44 325 31 60 -15 105 -14 156
5 54 19 143 21 165 4 8 -8 22 -26 30 -42 26 -50 94 -255 109 -331 3 -15 19
-39 35 -54 27 -24 120 -196 120 -222 0 -6 16 -43 35 -81 20 -39 45 -95 56
-125 12 -32 31 -62 45 -72 23 -15 151 -194 223 -313 18 -30 59 -86 90 -125 72
-89 111 -153 156 -260 8 -19 39 -60 69 -92 30 -32 75 -86 100 -119 25 -34 64
-78 86 -98 23 -20 45 -47 50 -60 4 -13 71 -99 147 -192 76 -93 147 -182 157
-199 11 -16 52 -68 91 -115 105 -124 180 -224 194 -256 6 -16 30 -42 52 -57
22 -16 90 -96 153 -181 68 -92 127 -161 149 -175 20 -12 39 -31 42 -41 3 -11
22 -38 41 -61 19 -23 32 -47 29 -53 -3 -6 -8 -18 -11 -28 -3 -9 -22 -19 -42
-23 -20 -4 -70 -17 -112 -30 -41 -13 -107 -28 -146 -34 -39 -6 -88 -17 -110
-24 -21 -8 -64 -17 -94 -21 -30 -4 -113 -21 -185 -37 -71 -17 -166 -32 -210
-34 -49 -2 -125 -15 -195 -33 -63 -17 -164 -38 -225 -47 -60 -9 -139 -23 -175
-31 -36 -8 -119 -22 -185 -30 -66 -8 -146 -22 -178 -30 -133 -34 -305 -64
-371 -64 -39 0 -109 -9 -156 -20 -47 -11 -152 -34 -235 -50 -82 -16 -233 -50
-335 -74 -102 -25 -242 -58 -311 -74 -69 -16 -155 -43 -190 -60 -35 -16 -80
-33 -99 -37 -19 -4 -73 -22 -120 -40 -47 -18 -119 -38 -160 -45 -41 -6 -104
-21 -139 -32 -55 -18 -77 -20 -172 -13 l-109 7 -47 -32 c-26 -17 -58 -33 -70
-36 -29 -8 -83 -105 -113 -204 -46 -152 -24 -340 46 -407 20 -18 37 -46 41
-65 12 -68 58 -128 97 -128 11 0 30 -9 42 -21 50 -47 165 -33 277 34 103 62
238 113 500 187 76 22 142 42 146 45 5 2 46 12 92 21 57 11 97 25 125 44 27
19 67 34 120 44 43 8 99 22 124 31 25 9 92 23 150 31 58 9 123 23 145 31 96
35 185 55 410 92 132 22 318 56 413 75 188 39 309 57 387 61 90 4 697 114 795
144 52 16 122 34 155 40 33 6 80 18 105 26 25 8 101 24 170 35 69 11 143 27
165 34 22 8 60 17 85 20 25 3 78 14 119 25 41 12 102 21 135 21 34 0 77 5 97
10 19 5 80 17 134 25 78 11 102 12 113 2 30 -24 188 -204 246 -279 39 -51 71
-82 97 -93 21 -10 41 -25 44 -35 3 -9 24 -31 48 -48 23 -16 78 -70 122 -118
44 -48 100 -108 124 -133 25 -25 61 -67 80 -92 20 -26 93 -111 163 -190 69
-79 144 -167 165 -195 21 -29 70 -76 108 -107 39 -30 104 -92 145 -138 132
-149 223 -239 240 -239 9 0 25 -10 36 -21 10 -12 55 -52 99 -89 44 -37 131
-116 192 -176 62 -60 140 -134 173 -165 37 -34 60 -63 60 -76 0 -23 -89 -99
-173 -148 -27 -15 -92 -59 -145 -98 -60 -43 -118 -77 -152 -87 -73 -22 -195
-85 -212 -108 -7 -10 -40 -32 -73 -49 -33 -17 -89 -49 -125 -72 -36 -23 -78
-49 -93 -59 -16 -9 -61 -43 -100 -74 -40 -32 -99 -72 -132 -89 -33 -18 -85
-49 -115 -69 -30 -20 -71 -45 -90 -55 -19 -10 -53 -32 -75 -50 -22 -18 -57
-38 -77 -44 -20 -7 -42 -18 -48 -26 -7 -8 -49 -28 -93 -45 -85 -33 -216 -105
-230 -127 -4 -7 -14 -13 -21 -13 -7 0 -23 -11 -36 -25 -37 -39 -144 -93 -259
-131 -63 -21 -121 -47 -143 -64 -20 -17 -40 -30 -45 -30 -4 0 -35 -16 -67 -36
-79 -47 -180 -87 -332 -130 -150 -42 -217 -70 -281 -119 -26 -19 -119 -72
-207 -117 -89 -44 -215 -111 -281 -148 -66 -36 -181 -99 -255 -138 -108 -58
-150 -87 -208 -144 -103 -101 -107 -109 -106 -258 0 -133 26 -274 65 -352 69
-136 274 -257 345 -203 10 8 27 15 36 15 9 0 62 42 116 93 102 95 227 188 272
202 13 4 36 20 51 34 36 36 107 77 149 86 52 10 183 74 283 138 58 37 125 68
197 92 60 20 113 42 120 49 13 17 86 36 136 36 26 0 53 10 88 35 28 19 121 61
206 93 189 71 210 82 280 142 30 26 98 76 150 110 52 35 120 84 150 110 30 26
75 60 100 76 25 16 71 50 103 77 32 26 119 77 195 114 75 37 159 84 186 105
27 21 67 42 90 48 93 23 181 78 264 166 46 49 87 84 98 84 11 0 35 11 54 24
19 12 52 28 72 35 21 7 63 33 95 58 32 24 105 69 163 98 58 29 169 95 247 146
143 95 242 154 366 217 81 42 157 53 205 28 47 -24 222 -151 263 -190 42 -40
156 -116 175 -116 7 0 46 -31 87 -69 41 -38 88 -77 103 -87 16 -10 65 -44 110
-75 44 -32 112 -74 152 -94 39 -19 108 -67 154 -106 75 -63 241 -159 277 -159
21 0 154 -65 200 -98 40 -29 50 -32 122 -32 69 0 86 -4 146 -35 56 -28 86 -36
168 -45 55 -6 116 -16 135 -22 29 -9 123 -70 259 -168 14 -11 53 -29 86 -41
33 -12 85 -39 116 -60 32 -21 77 -46 100 -55 48 -19 99 -60 99 -81 0 -32 105
-86 1272 -654 896 -437 1268 -616 1418 -684 58 -27 132 -63 165 -81 69 -37
154 -64 203 -64 19 0 48 -6 65 -14 18 -7 52 -19 77 -26 25 -6 92 -34 150 -60
58 -27 139 -58 180 -70 53 -16 95 -37 142 -72 39 -28 89 -55 117 -63 68 -18
106 -42 129 -84 53 -94 129 -122 387 -142 112 -8 173 -18 240 -39 179 -56 988
-206 1059 -197 24 3 62 -2 100 -13 129 -40 483 -110 1421 -282 319 -58 349
-62 490 -62 83 0 168 4 190 10 26 6 98 6 205 0 380 -21 816 -2 996 44 50 13
142 23 272 30 339 18 615 50 797 91 134 30 757 208 771 220 7 6 68 23 136 39
363 83 959 257 1001 290 l22 19 -25 9 c-25 10 -25 10 15 27 22 10 86 23 142
31 138 18 263 50 355 91 44 19 159 53 267 78 189 44 280 74 302 101 15 19 44
18 74 -2 24 -15 27 -15 73 15 27 17 54 31 61 31 7 0 29 9 49 20 20 10 62 26
92 35 30 10 67 26 82 37 15 10 71 33 123 49 52 16 139 50 194 74 54 25 107 45
117 45 11 0 39 11 64 24 25 13 56 27 70 31 14 4 36 15 50 25 14 10 39 21 57
24 17 4 49 20 70 35 56 40 119 68 193 85 87 20 117 32 152 61 16 14 36 25 44
25 14 0 128 82 139 101 4 5 23 9 44 9 29 0 46 7 70 30 36 35 70 50 110 50 15
0 50 12 77 26 27 15 84 44 127 65 43 22 104 57 135 78 31 21 86 53 122 71 35
18 83 47 106 64 23 18 75 48 115 68 145 71 264 126 287 133 13 4 51 28 85 54
34 26 87 59 118 73 32 14 76 45 100 69 34 34 49 43 74 41 34 -3 156 44 225 87
25 16 59 35 75 43 89 45 149 84 203 131 87 76 177 144 214 163 18 9 53 31 78
49 25 18 56 36 70 40 35 11 118 82 136 116 8 16 21 29 30 29 8 0 17 7 20 15 4
8 14 15 24 15 10 0 23 6 29 14 6 7 30 16 52 19 29 4 49 14 68 35 14 17 43 36
64 42 23 7 50 27 69 51 31 39 87 72 140 83 39 9 98 63 98 91 0 37 25 55 60 45
28 -8 33 -5 81 53 94 111 173 188 225 217 28 16 79 56 115 88 35 32 75 65 89
74 44 28 220 199 235 228 9 18 35 38 69 54 37 18 65 41 89 73 38 51 129 143
142 143 7 0 44 29 100 78 11 9 40 32 65 51 56 42 454 445 495 501 37 50 41 54
85 85 67 49 210 187 216 209 3 12 27 40 53 61 34 26 52 50 60 76 7 22 20 40
31 44 10 3 22 15 25 26 9 28 134 148 162 155 13 4 30 1 38 -6 14 -12 49 -10
88 5 13 6 16 3 11 -8 -8 -22 40 -33 81 -18 43 15 53 14 59 -7 5 -14 29 -22
114 -36 59 -11 141 -22 182 -25 63 -5 72 -8 55 -18 -17 -10 -16 -12 20 -21 22
-6 66 -13 99 -17 32 -4 76 -13 98 -21 22 -8 55 -14 72 -14 17 0 40 -7 50 -15
11 -8 30 -15 42 -15 13 0 26 -4 29 -10 8 -13 156 -13 191 0 22 9 29 8 36 -5 6
-10 24 -15 57 -15 27 0 67 -7 91 -15 23 -8 103 -19 178 -24 76 -5 145 -13 155
-16 13 -6 20 -2 24 14 7 26 9 26 42 -2 39 -33 204 -65 251 -49 71 25 213 4
296 -44 22 -13 44 -24 47 -24 4 0 14 14 23 31 l16 31 44 -43 c40 -39 48 -43
106 -47 42 -3 70 -10 83 -22 11 -10 43 -21 70 -25 31 -5 60 -16 75 -30 14 -13
43 -31 65 -40 22 -9 60 -35 85 -59 50 -48 70 -58 90 -46 9 6 26 -1 49 -19 22
-17 55 -31 82 -35 26 -4 79 -22 119 -42 40 -19 82 -33 94 -32 33 4 140 -24
152 -40 8 -11 24 -13 67 -8 32 4 57 11 57 14 0 4 50 6 111 4 70 -3 115 0 121
6 6 6 23 9 38 6 14 -3 43 1 64 10 l38 16 -3 117 c-2 111 -7 140 -44 262 -8 27
-15 57 -15 68 0 10 -13 27 -30 36 -16 10 -35 27 -40 37 -17 32 -65 50 -179 70
-59 10 -135 30 -170 44 -50 22 -71 25 -110 20 -45 -6 -50 -4 -66 20 -10 14
-24 26 -32 26 -9 0 -43 29 -77 64 -52 55 -70 67 -121 81 -38 11 -70 28 -89 47
-31 32 -64 48 -101 48 -13 0 -29 10 -39 25 -15 22 -23 25 -79 25 -45 0 -77 7
-117 26 -32 15 -63 23 -76 20 -28 -7 -54 2 -54 19 0 13 -40 24 -94 26 -27 1
-28 2 -8 7 12 4 -29 8 -93 9 -94 2 -115 -1 -115 -13 0 -18 -4 -18 -42 2 l-32
16 24 13 c22 12 19 13 -45 19 -39 4 -92 9 -120 12 l-50 5 24 -21 c23 -20 23
-20 2 -20 -12 0 -35 7 -50 15 -16 8 -56 19 -89 24 -34 5 -70 15 -81 21 -17 9
-21 8 -21 -5 0 -9 -6 -18 -14 -21 -16 -6 -244 39 -304 60 -34 12 -43 12 -59 1
-24 -19 -87 -19 -103 0 -9 11 -32 15 -80 15 -37 0 -86 7 -109 15 -28 10 -61
13 -99 9 -64 -6 -126 11 -176 50 -30 22 -109 48 -152 48 -11 0 -24 10 -30 22
-13 30 -64 35 -71 7 -5 -20 -6 -20 -35 4 -16 14 -34 25 -39 25 -14 0 -29 45
-22 68 2 11 13 22 24 25 10 3 19 14 19 25 0 10 10 27 21 38 27 24 96 125 109
159 5 14 20 29 33 34 12 5 28 15 33 22 16 21 192 534 459 1339 259 782 330
1010 341 1089 12 93 67 135 174 133 36 -1 79 -6 96 -11 20 -5 37 -5 50 2 10 6
36 14 56 17 30 6 40 4 48 -9 7 -13 36 -17 178 -21 122 -4 174 -9 185 -19 14
-11 22 -11 47 -1 26 11 33 10 50 -5 24 -22 57 -15 100 22 32 26 32 26 78 10
44 -15 200 -23 376 -18 49 1 57 3 52 17 -5 14 -4 15 9 4 13 -11 26 -10 75 5
80 24 201 17 259 -16 32 -18 44 -20 53 -11 7 7 43 12 89 12 43 0 81 5 84 10 9
14 46 12 42 -2 -4 -23 34 -19 96 11 64 31 97 39 97 22 0 -18 33 -21 63 -6 16
8 51 15 76 15 27 0 56 7 69 16 16 11 69 20 170 29 151 13 195 24 204 47 3 7 0
45 -7 83 -7 39 -18 123 -23 187 -8 98 -14 125 -36 163 -15 25 -38 52 -51 61
-17 11 -25 26 -25 44 0 16 -7 36 -16 44 -20 20 -73 21 -80 1 -8 -20 -40 -18
-94 6 -24 11 -46 16 -48 11 -1 -5 -44 -8 -95 -6 -51 2 -233 5 -404 8 -248 3
-313 1 -313 -9 0 -21 -50 -28 -69 -10 -23 19 -90 19 -119 -1 -12 -8 -27 -12
-32 -9 -6 4 -79 8 -163 11 -83 2 -165 5 -182 5 -16 1 -50 1 -75 0 -25 -2 -62
0 -82 4 -33 6 -38 5 -38 -11 0 -14 -3 -15 -12 -6 -8 8 -45 12 -102 12 -77 0
-93 3 -112 21 -24 22 -47 18 -37 -6 4 -11 -3 -15 -25 -15 -17 0 -34 5 -37 10
-3 6 -34 10 -69 10 -99 0 -196 62 -196 126 0 24 31 64 50 64 6 0 10 14 10 31
0 20 14 51 40 88 41 58 48 77 30 83 -5 2 4 39 21 83 18 45 34 108 37 142 4 51
8 63 22 63 9 0 23 11 30 25 11 21 12 34 2 71 -13 48 -10 64 13 64 8 0 17 12
21 28 10 49 14 53 33 50 25 -4 27 4 11 43 -12 27 -11 32 9 45 11 8 21 25 21
38 0 12 7 42 15 67 8 24 21 90 30 147 17 118 27 144 58 142 12 -1 28 -2 34 -1
21 2 42 56 54 138 7 43 22 99 35 125 13 26 24 56 24 66 0 10 7 27 15 38 8 10
15 29 15 40 0 12 6 37 14 55 8 19 17 57 21 84 9 68 52 195 74 222 27 32 91 73
115 73 12 0 55 20 97 44 83 47 130 66 164 66 12 0 44 17 70 37 38 29 64 39
123 49 48 9 83 21 97 34 14 13 35 20 63 20 35 0 43 4 54 27 16 33 104 75 117
55 11 -18 66 4 86 34 8 13 21 24 28 24 7 0 28 11 47 25 19 14 45 25 58 25 18
0 23 4 18 16 -4 11 5 19 30 30 42 18 59 9 27 -13 -33 -22 -28 -33 12 -33 37 0
85 35 85 62 0 7 12 13 28 13 15 1 42 5 61 9 24 6 32 5 27 -3 -4 -6 -3 -11 3
-11 6 0 17 14 26 30 13 25 22 30 50 30 19 0 35 4 35 9 0 5 37 21 83 36 45 15
111 43 146 62 52 29 74 35 117 34 47 -1 54 2 54 19 0 38 98 90 194 104 63 10
176 71 176 97 0 19 32 31 155 60 28 6 61 19 75 28 35 22 90 41 123 41 22 0 30
6 38 29 6 18 20 32 35 35 13 4 24 13 24 21 0 20 43 36 94 34 23 0 61 6 86 14
25 8 68 20 95 26 28 7 68 24 89 38 22 14 51 29 65 33 14 3 37 22 49 41 22 31
23 41 17 114 -5 75 -7 122 -5 163 1 14 -49 221 -56 230 -7 11 -153 52 -185 52
-21 0 -39 5 -39 10 0 6 -12 4 -29 -5 -16 -8 -54 -24 -84 -35 -31 -12 -72 -34
-92 -50 -21 -17 -56 -35 -79 -41 -45 -12 -159 -71 -191 -99 -11 -10 -55 -25
-98 -34 -43 -9 -97 -27 -120 -40 -23 -13 -65 -29 -93 -35 -28 -5 -75 -20 -104
-31 -37 -15 -56 -18 -64 -10 -16 16 -26 12 -36 -14 -5 -15 -29 -33 -62 -49
-67 -31 -188 -59 -203 -47 -8 6 -19 0 -33 -20 -20 -27 -73 -62 -87 -59 -3 1
-43 -15 -88 -34 -45 -19 -118 -47 -162 -62 -44 -15 -100 -34 -125 -42 -25 -9
-59 -27 -77 -39 -17 -13 -34 -24 -37 -24 -3 0 -22 -12 -43 -26 -33 -22 -46
-25 -93 -21 -62 5 -100 -5 -100 -27 0 -34 -121 -92 -231 -110 -21 -4 -42 -13
-49 -21 -6 -7 -18 -11 -26 -8 -7 3 -16 -2 -20 -10 -3 -8 -22 -18 -42 -22 -20
-4 -43 -11 -50 -17 -7 -6 -33 -8 -59 -5 -59 6 -77 27 -68 82 3 22 10 75 14
119 5 43 13 81 18 85 5 3 12 14 16 24 4 9 18 22 31 27 26 10 30 20 41 105 4
27 14 63 22 78 8 16 18 59 23 95 21 164 33 228 47 244 8 9 18 45 23 81 4 35
13 73 19 85 6 11 11 56 11 99 0 51 5 88 16 108 8 16 14 50 13 75 -1 42 5 83
18 120 3 8 5 31 4 51 -2 22 4 40 13 48 13 11 16 39 16 160 0 185 4 208 50 284
28 45 35 67 29 79 -5 9 -9 33 -9 53 0 23 -5 38 -15 41 -13 5 -13 9 -3 22 11
12 11 16 0 20 -10 3 -9 8 4 23 9 10 23 19 30 19 25 0 27 42 3 92 l-23 50 22
16 c29 23 39 62 52 204 5 65 15 140 21 166 8 39 39 292 39 330 0 6 7 12 15 12
20 0 20 52 0 90 -14 26 -13 33 2 64 14 30 15 43 5 87 -16 67 -15 72 9 100 14
17 19 33 16 54 -3 16 1 44 8 60 7 19 15 115 20 250 6 185 10 225 25 250 29 50
43 249 24 360 -8 50 -14 101 -13 115 3 37 2 73 -5 190 -9 147 -16 191 -27 185
-14 -9 -11 13 7 40 13 20 14 30 4 57 -10 27 -9 40 4 72 20 48 21 142 1 180
-19 37 -19 76 0 76 20 0 28 38 22 102 -10 114 -28 254 -37 281 -5 17 -5 39 0
53 14 37 40 326 33 368 -4 26 0 47 13 71 15 28 16 38 6 60 -7 14 -12 37 -12
50 0 13 -4 27 -10 30 -13 8 -13 68 1 82 7 7 7 23 -1 54 -16 57 -4 189 16 189
18 0 18 9 0 51 -13 30 -13 36 1 51 14 16 14 22 -5 65 -24 57 -40 187 -24 205
16 20 -4 175 -29 216 -13 23 -16 38 -10 46 6 7 4 20 -4 36 -19 34 -18 76 1
131 16 44 16 47 -4 75 -13 18 -27 63 -36 116 -8 48 -20 96 -25 107 -8 15 -6
31 9 67 l21 47 -27 28 c-29 30 -29 22 -8 216 6 52 4 65 -13 90 l-21 28 24 53
c20 46 26 52 54 52 23 0 33 6 39 23 4 12 11 105 14 207 5 156 10 202 33 295
15 61 36 120 46 131 18 21 19 24 4 52 -22 42 -20 90 5 137 12 22 28 54 37 70
20 37 27 220 11 282 -9 34 -8 45 5 64 12 17 13 26 4 37 -9 10 -9 15 2 22 8 5
10 17 6 36 -17 69 -18 90 -2 103 21 18 20 34 -4 49 -25 15 -25 35 -2 58 13 13
17 35 18 88 0 39 4 88 8 109 7 30 4 48 -12 85 -16 34 -25 83 -33 182 -21 269
-22 316 -4 353 12 27 13 40 5 62 -6 16 -10 42 -8 57 2 18 -4 32 -17 42 -19 14
-19 16 -3 48 25 51 27 62 12 83 -8 10 -14 30 -14 43 0 13 -5 32 -10 42 -6 11
-12 58 -13 106 -2 58 -7 88 -16 94 -10 6 -12 20 -6 56 14 92 7 155 -23 197
-15 21 -31 44 -37 52 -6 10 -4 20 8 33 22 24 21 50 -3 87 -25 38 -27 125 -4
192 19 56 13 127 -18 186 -15 30 -18 50 -14 79 4 27 2 46 -9 60 -13 20 -13 24
1 40 11 11 14 27 11 45 -40 197 -44 229 -33 284 7 31 2 43 -38 101 -43 64 -72
137 -67 167 2 8 14 31 27 50 31 45 30 60 -2 86 -23 18 -27 32 -37 114 -9 83
-8 95 7 103 26 15 20 48 -9 48 -28 0 -30 8 -13 44 9 21 8 29 -5 44 -19 21 -47
85 -47 107 0 10 10 15 30 15 35 0 38 15 9 46 -25 27 -55 127 -39 132 6 2 10
38 10 82 0 52 4 80 12 82 8 3 6 13 -8 34 -32 45 -34 59 -13 94 23 37 19 60
-10 60 -25 0 -43 30 -30 51 15 23 10 47 -10 54 -26 8 -30 32 -18 100 7 44 6
64 -3 78 -10 17 -9 22 4 29 17 10 22 58 6 58 -5 0 -10 -5 -10 -12 0 -9 -3 -9
-11 -1 -8 8 -9 28 -1 73 9 49 9 68 -2 89 -8 14 -17 42 -21 61 -4 19 -12 40
-17 47 -6 8 -3 15 11 23 26 14 27 30 1 30 -20 0 -21 4 -20 147 0 56 -3 64 -25
79 -25 17 -25 17 -5 31 24 17 25 29 5 49 -8 9 -15 23 -15 33 0 10 -11 28 -25
41 -30 28 -31 49 -5 100 24 47 27 135 6 185 -12 29 -12 36 -1 45 12 10 12 15
-1 36 -10 14 -14 34 -10 51 4 19 0 38 -14 58 -18 27 -18 31 -3 47 15 17 15 20
-5 48 -16 21 -22 44 -22 80 0 28 4 49 9 46 19 -12 18 55 -2 80 -10 14 -16 32
-13 41 4 9 -1 24 -11 35 -11 12 -13 22 -7 26 6 4 11 46 12 93 1 82 0 89 -28
128 -31 43 -37 61 -20 61 22 0 30 50 15 87 -8 19 -15 48 -15 62 0 15 -18 82
-40 150 -43 131 -51 191 -25 191 24 0 29 28 12 68 -18 42 -30 287 -17 333 7
24 4 35 -16 58 -25 30 -31 51 -14 51 6 0 10 7 10 15 0 8 -9 15 -20 15 -14 0
-18 5 -13 16 4 11 -14 35 -61 78 -36 34 -66 67 -66 74 0 7 -22 28 -50 48 -27
20 -50 40 -50 45 0 15 -27 10 -34 -6z m-401 -455 c-3 -5 -11 -10 -16 -10 -6 0
-7 5 -4 10 3 6 11 10 16 10 6 0 7 -4 4 -10z m158 -627 c8 -10 35 -58 58 -106
40 -84 42 -90 27 -114 -14 -23 -13 -30 5 -80 18 -49 19 -60 8 -104 -12 -47
-12 -52 7 -69 24 -23 61 -168 46 -178 -28 -19 -21 -92 9 -92 16 0 52 -211 51
-302 0 -32 3 -58 8 -58 4 0 8 -7 8 -15 0 -8 11 -22 25 -31 20 -13 23 -19 14
-30 -9 -11 -9 -28 0 -71 6 -31 11 -98 11 -149 0 -72 4 -96 16 -109 15 -15 15
-19 0 -60 -13 -33 -15 -49 -7 -64 7 -13 8 -22 1 -26 -15 -9 -12 -25 6 -32 9
-3 20 0 25 8 10 15 1 -37 -9 -55 -11 -20 -14 -126 -3 -126 6 0 11 5 11 10 0 6
5 10 10 10 15 0 12 -36 -5 -50 -24 -20 -19 -57 9 -64 14 -3 27 -14 30 -24 15
-48 45 -215 51 -277 6 -63 4 -72 -14 -89 -12 -11 -21 -31 -21 -45 1 -23 2 -24
11 -8 16 27 26 12 34 -50 4 -32 12 -64 17 -71 6 -6 8 -35 6 -63 -3 -30 0 -67
9 -90 7 -22 20 -100 28 -172 9 -73 18 -139 21 -147 9 -23 26 -160 26 -205 -1
-22 6 -58 15 -80 23 -60 50 -271 57 -450 1 -27 8 -63 15 -80 8 -16 16 -66 19
-110 3 -54 10 -88 22 -105 17 -24 17 -26 -1 -49 -24 -30 -24 -68 1 -122 20
-46 29 -128 10 -99 -19 29 -11 -16 16 -97 19 -56 25 -91 21 -126 -2 -26 2 -72
9 -102 6 -30 17 -130 24 -223 6 -92 18 -192 27 -223 20 -73 15 -189 -10 -217
-23 -25 -22 -42 3 -42 23 0 23 2 9 -56 -9 -34 -9 -48 1 -59 18 -22 37 -291 22
-315 -7 -12 -8 -21 -2 -25 6 -3 7 -17 4 -30 -4 -16 1 -30 15 -44 25 -25 27
-57 4 -70 -16 -9 -16 -11 -2 -28 27 -30 29 -50 8 -76 -26 -34 -26 -101 0 -119
14 -10 19 -26 19 -58 0 -54 11 -121 23 -135 9 -12 -4 -175 -15 -194 -4 -6 -3
-18 4 -25 6 -9 11 -59 11 -131 0 -96 -4 -124 -19 -154 -25 -48 -36 -97 -23
-105 21 -13 24 -96 6 -162 -15 -54 -20 -63 -39 -61 -16 1 -20 -3 -18 -18 2
-11 11 -28 19 -37 14 -15 14 -19 -1 -33 -15 -16 -19 -56 -21 -232 0 -30 -6
-48 -22 -63 -47 -43 -46 -20 -134 -1848 -11 -225 -9 -343 7 -533 4 -50 2 -89
-6 -113 -10 -32 -10 -40 4 -55 28 -31 56 -266 37 -313 -8 -20 -7 -36 4 -61 24
-58 35 -167 19 -205 -13 -32 -10 -86 7 -107 4 -6 12 -48 18 -93 6 -45 19 -103
30 -129 30 -75 32 -92 16 -224 -20 -171 -19 -205 6 -237 l21 -27 -31 -3 c-38
-4 -41 -28 -6 -44 14 -6 25 -17 25 -25 0 -7 -11 -13 -25 -13 -18 0 -25 -5 -25
-20 0 -11 4 -20 8 -20 16 0 31 -49 43 -137 13 -100 4 -494 -12 -525 -7 -12 -6
-25 3 -40 24 -46 6 -352 -24 -413 -6 -11 -19 -30 -30 -42 -16 -18 -18 -25 -8
-43 8 -15 12 -85 13 -204 0 -173 -1 -186 -31 -296 -44 -160 -70 -326 -302
-1885 -33 -220 -79 -516 -102 -659 l-41 -258 -37 -37 c-21 -20 -43 -47 -50
-61 -7 -14 -32 -50 -55 -80 -50 -65 -87 -141 -111 -228 -14 -51 -22 -66 -43
-74 -24 -9 -25 -11 -9 -22 16 -12 14 -17 -22 -66 -22 -29 -42 -61 -45 -72 -4
-10 -12 -18 -20 -18 -7 0 -23 -15 -34 -33 -16 -27 -41 -42 -118 -75 -83 -36
-109 -42 -165 -42 -39 0 -68 -4 -68 -10 0 -5 -10 -10 -22 -10 -13 0 -32 -7
-42 -15 -11 -8 -28 -15 -37 -15 -10 0 -26 -14 -36 -30 -23 -40 -49 -47 -77
-21 -30 28 -43 26 -65 -10 -14 -23 -20 -27 -24 -15 -10 25 -36 19 -43 -9 -6
-24 -24 -35 -24 -15 0 18 -39 10 -53 -10 -13 -19 -15 -19 -21 -4 -5 13 -9 14
-21 4 -12 -10 -13 -16 -4 -26 9 -11 8 -14 -1 -14 -8 0 -21 -7 -31 -16 -9 -8
-55 -22 -100 -30 -46 -9 -94 -18 -106 -20 -14 -3 -23 -12 -23 -23 0 -22 -41
-45 -67 -37 -11 3 -46 -5 -80 -19 -34 -13 -110 -33 -171 -44 -60 -10 -118 -23
-128 -29 -90 -46 -139 -62 -165 -57 -30 7 -60 -5 -99 -40 -19 -17 -41 -24 -91
-28 -75 -5 -97 -13 -80 -30 6 -6 11 -20 11 -30 0 -18 -2 -18 -22 -5 -30 19
-70 29 -85 20 -6 -4 -13 -18 -14 -32 -3 -21 -10 -25 -44 -28 -22 -2 -44 -8
-49 -13 -6 -5 -21 -9 -34 -9 -30 0 -62 -17 -84 -45 -12 -16 -33 -24 -73 -29
-68 -8 -191 -49 -218 -73 -12 -11 -37 -19 -66 -20 -76 -2 -115 -8 -138 -21
-12 -7 -29 -12 -39 -12 -9 0 -22 -8 -29 -17 -10 -14 -37 -18 -151 -23 -130 -6
-184 -18 -184 -40 0 -5 -24 -25 -54 -44 -51 -35 -106 -48 -106 -25 0 14 -138
1 -165 -15 -52 -31 -144 -56 -184 -50 -33 5 -52 1 -101 -22 -38 -18 -60 -35
-60 -46 0 -21 -12 -29 -29 -18 -8 4 -10 13 -6 20 6 10 -5 12 -54 7 -34 -4 -70
-11 -81 -17 -10 -5 -34 -10 -54 -10 -19 0 -99 -15 -178 -34 -79 -18 -170 -38
-203 -45 -45 -8 -66 -17 -83 -38 l-22 -28 -20 25 -20 25 -23 -27 c-25 -30 -57
-37 -57 -13 0 22 -48 19 -88 -5 -18 -11 -42 -20 -53 -20 -11 0 -30 -6 -42 -14
-12 -8 -60 -20 -107 -26 -124 -16 -130 -18 -130 -40 0 -22 -16 -35 -25 -20 -3
5 -28 10 -55 10 -42 0 -52 -4 -66 -25 -14 -22 -24 -25 -70 -25 -41 0 -54 -4
-54 -15 0 -18 -3 -18 -53 -4 -32 9 -42 8 -56 -5 -10 -9 -24 -16 -32 -16 -8 0
-23 -7 -33 -15 -11 -8 -31 -15 -45 -15 -14 0 -46 -10 -71 -21 -25 -11 -73 -29
-107 -40 -49 -15 -62 -24 -65 -42 -2 -15 -11 -23 -28 -25 -13 -2 -33 -10 -44
-18 -11 -8 -33 -14 -48 -14 -15 0 -33 -8 -40 -19 -7 -10 -23 -21 -35 -25 -12
-4 -26 -20 -32 -36 -12 -35 -12 -35 -51 -15 -35 18 -196 10 -220 -11 -8 -7
-37 -18 -65 -25 -27 -7 -62 -21 -77 -31 -15 -10 -59 -30 -97 -43 -38 -13 -93
-39 -123 -57 -76 -49 -165 -88 -201 -88 -20 0 -41 -10 -60 -27 -20 -19 -31
-24 -34 -15 -3 6 -12 12 -21 12 -33 0 -158 -46 -212 -78 -30 -17 -71 -34 -90
-37 -90 -14 -201 -52 -270 -93 -8 -5 -31 -15 -50 -22 -19 -7 -63 -23 -98 -36
-35 -13 -99 -30 -143 -38 -44 -8 -88 -21 -97 -29 -18 -16 -72 -28 -139 -32
-24 -2 -63 -15 -88 -29 -76 -45 -187 -86 -232 -86 -23 0 -76 -13 -116 -29 -41
-16 -103 -33 -138 -36 -42 -5 -76 -15 -99 -31 -22 -15 -68 -29 -120 -39 -47
-8 -119 -26 -160 -41 -41 -14 -115 -33 -165 -41 -106 -17 -184 -39 -242 -69
-24 -12 -52 -20 -62 -17 -11 3 -42 -2 -68 -12 -26 -9 -73 -21 -103 -25 -63
-10 -346 -106 -424 -144 -29 -14 -70 -26 -90 -26 -21 0 -65 -11 -99 -25 -34
-13 -100 -36 -147 -51 -104 -32 -188 -72 -201 -95 -5 -10 -23 -21 -41 -24 -45
-10 -125 -95 -134 -143 -4 -20 -15 -59 -25 -85 -25 -64 -24 -117 2 -151 47
-60 186 -138 289 -162 30 -7 74 -18 98 -25 34 -11 51 -11 90 0 26 8 80 20 120
27 41 7 99 25 129 39 31 14 58 23 61 20 3 -3 -4 -19 -16 -35 -12 -16 -22 -34
-22 -40 0 -6 -12 -23 -27 -38 -22 -21 -31 -43 -39 -97 -17 -104 -35 -188 -44
-205 -10 -18 7 -54 66 -137 24 -34 54 -65 66 -69 13 -4 27 -13 33 -20 5 -8 35
-22 65 -33 30 -11 84 -32 118 -46 l64 -26 336 0 c358 1 441 6 484 27 15 8 58
14 98 14 71 0 168 19 245 47 40 15 164 35 220 35 17 0 49 -3 72 -7 29 -5 78
-1 155 13 62 12 151 25 198 30 47 5 106 18 132 28 43 17 48 17 65 2 15 -14 22
-15 42 -3 19 10 83 12 279 9 151 -2 261 0 272 6 12 6 30 4 60 -7 39 -16 45
-16 90 0 26 9 70 20 96 23 27 4 55 14 62 23 10 13 27 15 85 12 137 -9 362 -4
435 8 57 10 82 10 120 0 38 -9 98 -9 278 0 126 6 297 11 379 12 158 0 235 8
350 34 108 25 192 34 425 45 214 11 337 27 375 47 27 15 90 31 147 37 26 3 74
16 105 30 32 13 85 27 118 31 33 4 83 13 110 21 28 7 82 20 120 28 127 26 170
37 187 46 10 6 32 10 50 10 40 0 136 43 144 65 4 10 20 15 48 15 43 0 143 22
316 69 62 17 144 32 200 35 52 3 140 13 195 21 65 10 101 12 103 5 5 -15 26
-12 59 7 27 15 32 15 63 0 56 -29 159 -19 182 16 4 6 35 12 70 12 35 1 87 11
118 22 30 11 93 24 138 27 46 4 102 14 124 22 22 8 55 14 72 14 19 0 47 11 66
25 34 25 67 34 55 15 -3 -5 -2 -10 4 -10 32 0 174 24 239 41 100 25 158 25
172 0 5 -11 10 -29 10 -40 0 -12 5 -21 10 -21 16 0 11 -28 -7 -39 -21 -11 -86
-155 -72 -159 18 -7 9 -22 -23 -38 l-33 -17 28 -9 c30 -11 35 -34 12 -64 -8
-10 -15 -26 -15 -35 0 -9 -9 -24 -20 -34 -11 -10 -20 -29 -20 -41 0 -18 -10
-28 -37 -41 -30 -14 -40 -26 -49 -58 -6 -22 -16 -53 -22 -68 -18 -42 -15 -56
13 -69 14 -6 25 -17 25 -23 0 -23 -49 -65 -75 -65 -31 0 -43 -25 -25 -53 11
-18 8 -24 -26 -52 -36 -31 -37 -32 -31 -84 9 -74 -11 -121 -51 -121 l-30 0 -4
-90 c-4 -95 -19 -126 -62 -132 -15 -2 -22 -11 -24 -33 -2 -16 -12 -39 -22 -50
-10 -11 -21 -30 -25 -42 -3 -13 -17 -26 -31 -29 -29 -7 -32 -24 -4 -24 26 0
26 -27 0 -35 -23 -7 -50 -32 -50 -46 0 -6 5 -7 12 -3 7 5 9 2 6 -7 -3 -8 -16
-45 -28 -84 -16 -47 -35 -83 -61 -110 -21 -22 -41 -52 -44 -68 -4 -15 -16 -32
-26 -37 -10 -6 -23 -29 -29 -52 -7 -23 -18 -51 -26 -63 -11 -17 -11 -27 -2
-52 11 -29 10 -34 -13 -52 -13 -11 -32 -20 -41 -21 -22 0 -24 -32 -3 -63 14
-22 13 -27 -14 -68 -16 -24 -49 -64 -75 -89 -49 -47 -55 -60 -31 -60 36 0 -3
-54 -51 -70 -30 -10 -35 -16 -30 -35 8 -31 -7 -35 -114 -35 -98 0 -140 11
-140 36 0 12 -6 15 -26 10 -74 -19 -84 -19 -84 -1 0 16 -6 17 -47 10 -65 -10
-70 -10 -138 8 -33 9 -114 18 -180 21 -149 6 -273 22 -290 36 -12 10 -298 14
-545 9 -30 -1 -85 4 -122 11 -74 13 -118 8 -118 -15 0 -27 -20 -25 -63 8 -60
46 -184 78 -209 54 -9 -9 -45 -12 -123 -10 -116 3 -172 12 -218 33 -23 11 -37
11 -79 0 -40 -10 -53 -10 -56 -1 -6 19 -50 32 -137 41 -126 13 -179 26 -264
64 -103 47 -140 54 -157 32 -11 -16 -16 -14 -60 26 l-47 43 -152 5 c-121 4
-157 8 -171 21 -36 31 -161 59 -332 74 -92 9 -205 24 -252 36 -47 11 -106 25
-131 31 -34 8 -55 8 -79 -1 -23 -7 -37 -8 -44 -1 -5 5 -20 10 -31 10 -14 0
-26 10 -33 25 -9 20 -19 25 -49 25 -21 0 -74 7 -118 15 -44 9 -138 20 -210 26
-71 5 -172 19 -224 30 -63 14 -109 19 -141 15 -37 -5 -50 -3 -61 10 -11 14
-46 16 -298 13 -241 -2 -295 0 -346 14 -32 10 -94 17 -136 17 -82 0 -141 16
-187 50 -29 22 -30 22 -131 6 -101 -16 -103 -16 -209 8 -59 14 -150 30 -202
37 -52 6 -111 18 -130 26 -19 8 -82 23 -139 33 -72 13 -115 27 -140 44 -49 34
-109 43 -151 21 -24 -13 -38 -14 -59 -7 -95 37 -186 21 -293 -51 -70 -47 -77
-56 -83 -92 -12 -79 -17 -94 -36 -120 -11 -14 -28 -25 -37 -25 -10 0 -24 -16
-34 -38 -10 -20 -31 -60 -47 -87 -16 -28 -32 -71 -36 -95 -4 -25 -14 -58 -23
-75 -10 -20 -11 -30 -3 -33 6 -2 11 -22 11 -45 0 -36 -4 -44 -28 -58 -30 -17
-41 -41 -87 -189 -46 -147 -177 -350 -244 -381 -37 -16 -101 -76 -241 -224
-94 -100 -191 -184 -283 -245 -40 -26 -98 -70 -130 -97 -32 -28 -77 -56 -100
-62 -23 -7 -56 -24 -74 -37 -17 -13 -38 -24 -45 -24 -7 0 -36 -11 -64 -24 -28
-13 -66 -27 -85 -31 -19 -4 -70 -24 -114 -45 -100 -48 -251 -98 -331 -109 -34
-5 -70 -14 -80 -19 -35 -18 -448 -24 -579 -8 -205 24 -317 52 -417 102 -49 25
-133 59 -186 76 -53 17 -117 44 -142 61 -25 16 -94 59 -155 95 -60 36 -133 87
-162 113 -28 27 -58 49 -66 49 -8 0 -22 10 -33 21 -10 12 -42 36 -70 54 -28
18 -64 51 -80 74 -16 22 -36 43 -45 46 -8 3 -23 23 -32 44 -10 21 -34 60 -54
86 -49 65 -73 132 -79 229 -3 44 -13 100 -21 123 -11 30 -13 58 -9 96 8 59 1
87 -20 87 -8 0 -14 5 -14 10 0 6 -11 16 -25 22 -21 9 -25 18 -25 54 0 24 -6
63 -14 86 -8 24 -16 69 -19 102 -3 32 -12 65 -21 75 -12 14 -13 19 -1 41 19
33 18 122 -1 190 -22 80 -33 231 -44 615 -5 187 -14 379 -20 426 -8 69 -7 95
4 126 8 22 19 82 26 134 6 52 25 132 41 179 16 47 29 98 29 113 0 19 8 31 29
42 20 10 42 39 69 92 22 43 56 105 75 138 41 69 146 205 159 205 4 0 8 7 8 16
0 9 40 58 89 108 49 50 92 102 96 116 4 14 18 41 30 60 13 20 36 63 53 96 20
40 80 115 174 218 79 87 161 188 183 225 23 36 68 107 102 157 34 50 69 106
77 125 28 60 118 172 251 314 171 182 223 234 268 268 27 20 37 35 37 56 0 21
13 39 56 76 70 60 85 93 74 160 -11 68 -50 196 -65 215 -7 8 -15 40 -18 70 -8
72 -95 250 -137 280 -57 41 -118 45 -307 21 -94 -11 -210 -30 -258 -41 -103
-24 -122 -25 -169 -5 -35 15 -44 14 -139 -9 -56 -13 -154 -34 -218 -45 -133
-24 -497 -119 -578 -151 -111 -44 -226 -71 -318 -76 -64 -3 -106 -10 -140 -25
-35 -16 -80 -24 -163 -29 -63 -4 -146 -15 -185 -23 -95 -22 -315 -39 -396 -31
-74 7 -202 -13 -329 -51 -41 -12 -118 -28 -170 -34 -52 -7 -138 -23 -190 -36
-52 -13 -148 -33 -212 -44 -65 -12 -141 -30 -171 -41 -63 -24 -123 -80 -162
-152 -38 -70 -46 -205 -20 -352 27 -150 44 -178 132 -222 32 -15 82 -54 116
-88 72 -74 104 -96 137 -96 47 0 116 -51 160 -117 23 -35 55 -72 71 -84 16
-11 47 -46 68 -77 43 -63 115 -135 179 -177 24 -16 61 -50 82 -77 22 -28 68
-72 104 -99 35 -27 67 -53 71 -59 3 -6 23 -19 43 -29 27 -14 49 -38 77 -86 26
-45 52 -76 79 -92 23 -14 77 -60 121 -102 44 -42 104 -97 133 -122 58 -52 59
-57 36 -164 -9 -38 -19 -113 -23 -165 -5 -52 -15 -112 -25 -133 -18 -40 -17
-44 30 -187 9 -28 14 -86 14 -155 0 -103 2 -114 32 -175 30 -62 32 -71 34
-200 1 -86 7 -155 17 -190 9 -30 19 -100 22 -155 4 -55 15 -134 26 -177 10
-42 19 -106 19 -143 0 -36 6 -78 14 -93 7 -15 17 -61 21 -102 4 -42 20 -108
36 -149 28 -72 28 -76 12 -100 -12 -19 -16 -42 -14 -81 4 -70 4 -117 -1 -265
-3 -102 -7 -126 -26 -160 -52 -93 -83 -165 -101 -239 -11 -43 -35 -104 -54
-135 -19 -31 -46 -80 -61 -108 -14 -29 -41 -67 -60 -84 -19 -17 -40 -45 -47
-62 -18 -47 -48 -76 -111 -108 -31 -16 -89 -56 -129 -89 -39 -33 -75 -60 -79
-60 -4 0 -24 -13 -44 -29 -29 -23 -53 -31 -124 -41 -48 -7 -101 -21 -118 -31
-17 -10 -41 -19 -52 -19 -11 0 -27 -7 -36 -15 -17 -18 -52 -20 -62 -4 -9 15
-114 5 -174 -16 -42 -15 -50 -15 -109 1 -49 14 -67 15 -82 6 -20 -13 -197 -2
-391 24 -59 8 -125 14 -149 14 -66 0 -247 29 -324 52 -38 11 -108 24 -155 28
-92 9 -191 39 -222 66 -11 10 -60 25 -119 35 -120 21 -206 59 -278 123 -40 36
-59 46 -75 42 -26 -6 -85 23 -139 70 -22 18 -109 109 -195 202 -239 258 -239
258 -417 250 -11 0 -46 3 -77 7 l-58 8 -56 -49 c-40 -34 -64 -64 -81 -103 -14
-31 -45 -79 -69 -108 -51 -59 -55 -88 -29 -208 8 -39 15 -94 15 -124 0 -62 18
-177 32 -203 5 -11 20 -18 37 -18 21 0 50 -19 112 -75 46 -41 101 -82 122 -92
20 -9 37 -24 37 -33 0 -27 28 -57 60 -63 41 -9 92 -50 141 -114 22 -29 56 -62
77 -72 20 -11 55 -38 77 -61 49 -52 84 -70 129 -70 27 0 46 -9 74 -34 62 -56
132 -86 225 -96 45 -5 114 -21 152 -35 39 -15 104 -33 145 -41 41 -8 134 -34
205 -58 162 -56 284 -81 322 -68 20 6 40 5 68 -5 65 -23 268 -45 435 -46 143
-2 156 -4 176 -23 19 -20 30 -22 110 -19 49 1 134 8 189 15 79 10 126 10 225
0 l125 -13 55 29 c39 20 77 30 130 35 125 12 259 46 357 90 23 10 47 19 52 19
6 0 18 11 27 25 9 14 23 25 31 25 9 0 44 27 79 59 36 34 92 73 130 92 44 21
95 58 148 108 45 42 114 95 154 119 40 24 77 53 81 66 5 12 32 49 60 83 28 33
51 69 51 80 0 10 20 52 45 93 25 41 47 90 51 107 8 43 20 34 55 -43 19 -43 38
-70 57 -81 16 -9 35 -32 41 -49 15 -41 102 -121 159 -145 23 -10 64 -38 90
-63 26 -24 76 -61 112 -82 36 -20 88 -56 115 -80 36 -30 68 -46 114 -58 35 -9
87 -29 115 -45 52 -30 279 -123 328 -135 14 -3 40 -17 56 -31 17 -14 38 -25
49 -25 10 0 30 -13 45 -30 21 -24 34 -30 67 -30 27 0 44 -5 47 -15 3 -8 39
-30 79 -50 57 -28 83 -36 121 -34 27 1 85 -8 129 -19 45 -12 120 -23 171 -24
80 -3 96 -7 130 -30 35 -24 44 -26 79 -18 22 5 73 10 113 10 87 0 236 29 342
65 41 15 119 35 172 45 53 10 111 26 129 36 23 11 34 13 37 5 6 -19 40 -12 95
18 28 16 64 32 79 35 15 3 44 17 64 31 20 14 42 25 48 25 6 0 28 11 48 25 21
14 51 25 70 25 36 0 97 27 132 58 12 10 33 23 47 29 15 6 42 25 60 41 19 16
63 45 99 65 36 20 99 64 140 98 41 33 92 69 112 80 20 10 57 46 83 79 40 52
179 170 200 170 19 0 364 326 398 375 14 22 46 68 69 102 88 128 138 210 149
243 7 19 22 49 35 65 12 17 26 43 30 59 9 37 66 146 138 265 32 51 60 110 62
130 11 77 13 80 54 91 41 11 76 6 119 -16 14 -8 33 -14 41 -14 8 0 33 -7 55
-15 22 -8 59 -14 82 -15 33 0 43 -4 48 -20 7 -23 23 -25 59 -9 20 9 33 8 66
-5 46 -18 165 -21 222 -5 34 9 43 7 85 -17 38 -23 61 -28 132 -32 63 -2 101
-10 142 -28 55 -23 64 -24 305 -24 137 0 292 -5 344 -11 52 -6 169 -12 260
-13 136 -2 171 -6 199 -20 22 -12 73 -21 145 -27 60 -5 115 -14 120 -19 6 -6
29 -10 52 -10 24 0 55 -5 69 -10 15 -6 59 -15 98 -21 40 -5 93 -19 118 -29 60
-25 143 -38 320 -49 128 -8 152 -12 199 -36 50 -25 60 -27 132 -21 73 6 81 5
130 -23 66 -36 74 -38 271 -61 117 -13 174 -25 204 -40 30 -15 72 -24 145 -30
57 -4 119 -15 140 -23 20 -9 56 -21 81 -27 84 -18 312 -45 393 -45 48 0 87 -5
95 -12 26 -22 66 -32 168 -43 56 -6 117 -18 136 -25 27 -12 87 -15 269 -15
129 0 246 4 261 10 18 7 41 5 80 -5 83 -21 843 -34 856 -14 7 11 9 9 9 -8 0
-18 6 -23 25 -23 31 0 32 -19 5 -78 -19 -42 -19 -43 -1 -37 22 7 38 -10 17
-18 -8 -3 -16 -18 -18 -34 -4 -35 -37 -45 -45 -14 -3 12 -9 21 -14 21 -15 0
-84 -90 -89 -117 -4 -19 -12 -27 -29 -28 -31 -2 -137 -112 -158 -163 -8 -20
-44 -67 -81 -104 -54 -57 -71 -68 -98 -68 -36 0 -100 -36 -108 -60 -3 -8 -10
-35 -16 -58 -11 -41 -12 -43 -29 -28 -24 22 -41 20 -41 -4 0 -13 -9 -22 -25
-26 -19 -5 -33 1 -62 26 -43 38 -135 83 -161 78 -30 -6 -18 -32 20 -43 20 -5
42 -15 49 -22 20 -20 1 -81 -39 -124 -29 -34 -410 -296 -489 -338 -16 -8 -23
-21 -23 -41 0 -24 -4 -30 -21 -30 -31 0 -56 -17 -63 -43 -3 -13 -17 -30 -32
-37 -29 -16 -60 -55 -65 -85 -3 -13 -13 -20 -27 -21 -42 -2 -142 -124 -129
-158 4 -9 -2 -12 -18 -8 -17 3 -41 -12 -96 -60 -41 -35 -119 -102 -174 -148
-55 -46 -103 -89 -107 -94 -7 -11 -83 -52 -150 -82 -28 -13 -38 -23 -38 -40 0
-15 -5 -22 -13 -18 -14 5 -182 -70 -193 -87 -3 -6 -12 -8 -20 -5 -7 3 -39 -10
-70 -29 -31 -19 -61 -36 -68 -38 -8 -3 -8 -8 1 -19 11 -12 9 -18 -6 -32 -15
-14 -24 -15 -40 -7 -24 13 -75 -4 -127 -44 -18 -14 -42 -25 -54 -25 -12 0 -18
-4 -15 -10 4 -6 -13 -10 -43 -10 -34 0 -57 -6 -75 -20 -14 -11 -34 -20 -45
-20 -12 0 -23 -9 -27 -19 -3 -11 -19 -21 -38 -25 -39 -8 -250 -158 -888 -634
-268 -199 -503 -369 -523 -377 -19 -8 -53 -15 -74 -15 -72 0 -172 -49 -172
-85 0 -17 -61 -71 -108 -94 -23 -12 -72 -41 -110 -65 -37 -24 -101 -60 -142
-81 -41 -21 -89 -48 -106 -61 -17 -13 -40 -24 -50 -24 -11 0 -35 -8 -54 -18
-19 -11 -57 -24 -84 -31 -45 -11 -237 -109 -298 -152 -14 -11 -42 -19 -61 -19
-19 0 -40 -7 -47 -15 -7 -8 -18 -15 -24 -15 -20 0 -131 -57 -162 -83 -18 -15
-39 -27 -48 -27 -10 0 -31 -7 -49 -16 -30 -16 -167 -54 -272 -76 -60 -13 -61
-14 -45 -33 7 -8 9 -23 6 -32 -6 -14 -9 -15 -15 -4 -5 7 -24 13 -42 13 -44 0
-236 -63 -292 -96 -23 -14 -74 -32 -112 -41 -39 -9 -90 -24 -115 -34 -106 -45
-360 -124 -546 -171 -111 -28 -228 -61 -260 -74 -80 -33 -159 -52 -284 -71
-133 -19 -227 -41 -310 -71 -41 -15 -127 -31 -231 -43 -92 -12 -179 -25 -193
-31 -15 -5 -45 -10 -67 -10 -21 0 -62 -9 -91 -20 -29 -11 -70 -20 -92 -20 -21
0 -55 -5 -75 -11 -28 -8 -49 -7 -92 4 -47 12 -58 12 -74 1 -10 -8 -37 -14 -59
-14 -23 0 -66 -7 -96 -15 -30 -8 -76 -15 -101 -15 -25 0 -68 -7 -95 -15 -27
-8 -77 -15 -110 -15 -53 0 -66 -4 -100 -31 -73 -58 -150 -78 -424 -109 -102
-12 -215 -28 -252 -36 -38 -8 -98 -20 -135 -28 -38 -8 -162 -20 -278 -26 -159
-9 -217 -16 -240 -28 -43 -24 -521 -28 -640 -6 -44 8 -174 23 -290 34 -115 11
-243 25 -283 30 -40 6 -102 10 -136 10 -35 0 -101 6 -147 14 -46 8 -104 17
-129 19 -51 5 -197 33 -250 49 -19 5 -98 12 -175 15 -77 2 -149 8 -160 12 -65
27 -491 111 -684 136 -64 8 -240 26 -391 40 -383 36 -553 61 -619 91 -29 13
-92 50 -140 83 -47 32 -111 71 -141 86 -30 15 -80 42 -110 60 -30 18 -80 43
-110 55 -30 12 -91 43 -135 70 -44 27 -98 52 -119 56 -58 10 -146 57 -185 98
-32 33 -33 36 -13 36 40 0 23 18 -55 60 -104 55 -1448 704 -1638 791 -83 38
-180 75 -215 83 -277 62 -506 140 -600 203 -19 13 -49 23 -67 23 -24 0 -42 10
-70 38 -27 28 -59 46 -108 62 -130 43 -382 167 -435 215 -8 8 -53 35 -100 60
-95 53 -382 234 -625 394 -88 59 -176 114 -195 124 -105 55 -187 105 -310 187
-77 52 -325 199 -384 228 -27 13 -88 49 -135 81 -47 32 -193 119 -323 193
-130 75 -244 143 -253 152 -9 9 -25 16 -36 16 -24 0 -79 27 -79 38 0 18 59 62
129 97 41 21 91 50 111 66 19 16 59 36 87 44 58 17 120 60 203 140 31 30 88
70 130 91 41 21 94 52 117 69 23 18 69 42 102 54 39 14 80 40 115 71 29 28 61
50 69 50 9 0 28 11 44 24 15 13 57 37 93 53 36 16 81 43 100 59 19 17 49 38
65 48 17 10 73 51 125 91 52 40 124 87 160 105 36 18 92 51 125 74 33 23 77
49 97 58 20 10 44 30 52 46 10 19 35 38 68 54 30 14 59 37 67 51 8 14 32 32
56 42 24 9 63 33 87 53 47 42 162 114 247 157 30 15 80 51 110 80 31 29 67 58
81 65 14 7 55 34 91 61 36 26 78 53 94 59 41 16 207 136 325 235 36 30 73 57
84 61 29 9 88 51 126 90 32 32 88 69 200 132 25 14 74 52 109 84 36 31 77 60
92 63 46 10 139 78 214 155 39 39 107 96 152 126 45 30 95 70 110 89 15 19 32
35 37 35 20 0 171 82 192 105 13 14 30 25 38 25 8 0 65 37 127 81 63 45 129
86 149 91 19 6 44 18 55 28 11 10 36 26 55 35 19 10 60 34 90 54 30 19 75 41
100 48 135 36 185 60 217 102 32 41 73 151 73 195 0 12 9 47 20 79 21 60 27
183 11 215 -5 9 -14 44 -20 77 -13 71 -46 121 -115 177 -71 56 -128 83 -221
103 -134 30 -147 30 -190 1 -21 -14 -49 -26 -63 -26 -14 0 -34 -9 -46 -21 -12
-12 -70 -50 -131 -85 -60 -36 -126 -77 -145 -92 -19 -16 -73 -53 -120 -84 -86
-56 -118 -82 -142 -116 -7 -11 -26 -26 -43 -35 -16 -8 -57 -40 -91 -71 -33
-30 -85 -66 -115 -79 -30 -13 -60 -31 -68 -40 -7 -10 -41 -34 -75 -54 -33 -20
-88 -57 -121 -83 -34 -26 -72 -53 -85 -60 -14 -7 -50 -37 -80 -66 -51 -48
-104 -87 -300 -217 -41 -28 -97 -69 -125 -92 -27 -23 -64 -50 -81 -58 -18 -9
-56 -38 -85 -65 -30 -26 -94 -77 -144 -112 -49 -36 -129 -96 -176 -135 -124
-101 -292 -223 -352 -256 -29 -15 -79 -50 -113 -77 -33 -27 -87 -66 -120 -87
-32 -21 -76 -53 -97 -71 -20 -19 -42 -34 -48 -34 -5 0 -34 -22 -62 -49 -29
-27 -70 -58 -92 -70 -22 -12 -80 -50 -130 -86 -49 -35 -120 -80 -156 -99 -37
-19 -89 -54 -115 -77 -27 -23 -68 -51 -91 -61 -24 -10 -47 -27 -53 -38 -5 -10
-23 -21 -40 -25 -26 -6 -146 -94 -240 -176 -60 -52 -107 -89 -115 -89 -4 0
-20 -10 -35 -22 -16 -13 -59 -41 -95 -63 -37 -22 -102 -72 -144 -110 -57 -52
-95 -77 -148 -99 -39 -16 -93 -46 -118 -67 -26 -22 -55 -39 -64 -39 -27 0
-195 -85 -253 -128 -29 -22 -84 -65 -123 -97 -38 -31 -99 -72 -135 -90 -36
-18 -74 -42 -84 -54 -11 -12 -24 -21 -29 -21 -18 0 -231 -123 -271 -157 -22
-18 -56 -37 -75 -43 -31 -8 -39 -7 -61 14 -14 13 -38 31 -55 40 -16 10 -45 39
-63 65 -18 27 -88 101 -155 165 -67 64 -133 129 -147 144 -14 15 -99 99 -190
187 -90 88 -174 171 -185 184 -11 14 -76 84 -145 155 -224 233 -301 317 -540
581 -129 143 -287 315 -352 381 -65 67 -118 126 -118 132 0 14 49 52 66 52 7
0 48 13 91 29 43 16 114 34 158 40 44 6 122 26 174 46 51 19 108 35 126 35 18
0 48 7 68 15 19 8 64 21 99 29 232 54 443 121 580 186 35 17 69 30 76 30 7 0
35 11 63 25 27 14 76 31 107 36 31 6 70 18 86 26 16 8 70 22 119 30 53 8 102
22 118 34 15 10 33 19 41 19 7 0 47 16 88 36 64 31 90 37 175 44 83 7 110 13
160 39 42 22 109 42 225 67 91 19 185 41 210 50 25 8 74 23 110 33 36 10 90
28 120 41 30 12 89 28 130 35 96 17 248 61 278 81 13 8 62 22 110 29 48 8 105
24 127 35 21 11 49 20 60 20 12 0 26 5 33 12 7 7 27 11 46 10 19 -1 37 2 41 8
3 5 31 10 61 10 39 0 68 7 104 26 32 16 57 23 70 19 12 -4 28 -1 37 7 45 37
540 191 648 202 172 17 293 39 360 66 39 16 127 40 197 53 83 17 141 34 170
51 25 14 56 26 69 26 13 0 67 12 119 26 52 14 111 27 130 28 19 2 76 21 125
43 105 47 170 66 280 83 44 7 96 18 115 26 55 21 208 52 295 59 51 5 100 16
135 32 86 38 282 82 425 94 83 7 166 21 230 40 128 36 202 49 285 49 36 0 71
5 77 11 9 9 30 9 86 0 106 -17 187 -17 222 2 17 8 47 33 68 56 21 23 44 41 51
41 7 0 32 29 55 64 50 78 53 119 16 233 l-26 77 31 62 c37 75 37 90 3 101 -21
7 -30 21 -47 73 -19 60 -27 69 -91 119 l-70 54 -255 -7 c-140 -3 -280 -10
-310 -16 -30 -5 -100 -17 -155 -25 -88 -13 -374 -76 -550 -121 -112 -28 -140
-33 -182 -34 -23 0 -76 -13 -117 -29 -40 -17 -132 -42 -202 -57 -127 -26 -231
-58 -349 -108 -33 -13 -116 -34 -185 -47 -69 -12 -163 -36 -210 -54 -47 -17
-107 -37 -135 -44 -27 -7 -84 -23 -125 -37 -41 -13 -129 -35 -195 -49 -66 -14
-167 -39 -225 -55 -58 -16 -125 -31 -150 -35 -25 -4 -94 -27 -155 -52 -127
-53 -194 -72 -285 -83 -36 -4 -85 -14 -108 -23 -24 -9 -86 -24 -138 -32 -52
-8 -113 -24 -137 -35 -54 -24 -147 -58 -214 -76 -28 -8 -82 -27 -120 -43 -91
-39 -314 -106 -436 -131 -56 -11 -109 -28 -123 -39 -14 -11 -42 -25 -62 -32
-20 -7 -53 -23 -72 -35 -26 -18 -48 -24 -89 -24 -37 0 -71 -8 -109 -26 -30
-14 -94 -34 -141 -43 -47 -10 -95 -22 -106 -28 -11 -6 -38 -14 -60 -18 -22 -4
-80 -23 -129 -42 -49 -19 -157 -50 -240 -68 -162 -37 -210 -51 -275 -84 -23
-12 -89 -30 -146 -41 -57 -10 -120 -26 -142 -36 -21 -9 -76 -29 -123 -44 -47
-15 -107 -37 -135 -48 -27 -11 -71 -28 -97 -37 -26 -9 -66 -29 -90 -45 -24
-16 -59 -32 -78 -36 -19 -3 -89 -23 -155 -44 -127 -41 -217 -63 -300 -75 -27
-4 -63 -12 -80 -19 -116 -49 -194 -76 -221 -76 -17 0 -57 -9 -90 -20 -32 -12
-84 -25 -114 -29 -69 -10 -264 -48 -350 -67 l-65 -14 -95 38 c-93 37 -236 128
-310 197 -19 18 -47 39 -61 46 -95 49 -509 467 -509 513 0 8 -7 20 -16 27 -18
15 -117 159 -165 240 -16 28 -85 119 -152 201 -67 82 -145 181 -174 219 -28
38 -87 111 -130 161 -92 109 -202 264 -230 328 -12 25 -41 68 -66 97 -53 61
-130 199 -147 262 -12 44 -46 85 -103 124 -15 10 -46 58 -76 120 -28 56 -71
138 -95 182 -25 43 -50 102 -57 130 -6 27 -29 84 -51 125 -22 41 -53 109 -69
150 l-30 75 28 25 28 25 460 -1 c281 0 493 -5 545 -12 47 -6 193 -19 325 -27
174 -12 257 -22 300 -36 34 -11 142 -27 250 -38 106 -11 206 -26 226 -35 21
-8 90 -20 155 -26 66 -6 142 -18 171 -26 28 -8 67 -14 86 -14 19 0 53 -6 75
-14 22 -8 62 -18 89 -22 26 -4 61 -16 77 -27 24 -17 47 -20 160 -23 116 -2
141 -6 196 -28 35 -14 82 -26 105 -26 23 0 64 -6 91 -14 27 -8 159 -28 294
-45 135 -18 301 -43 370 -56 125 -25 331 -52 595 -80 78 -7 153 -19 168 -24
19 -7 34 -7 50 0 18 8 46 7 110 -5 53 -10 190 -20 359 -26 150 -5 318 -12 373
-15 124 -7 395 10 496 32 64 13 94 14 188 5 70 -6 124 -7 144 -1 18 5 63 9
102 10 38 0 104 4 145 9 102 13 461 40 535 40 33 1 785 -5 1670 -11 2224 -17
2153 -18 2193 4 29 16 44 17 150 7 160 -14 250 -12 297 5 22 8 58 14 79 15 34
0 46 7 82 45 23 25 45 57 49 72 3 14 19 38 36 54 23 21 29 36 29 67 0 23 -5
53 -11 69 -7 15 -12 80 -13 143 -1 98 -6 127 -31 199 -16 46 -43 104 -59 129
-28 40 -39 47 -106 68 -144 46 -257 59 -500 58 -195 0 -238 -3 -325 -22 -146
-33 -261 -49 -525 -72 -129 -12 -245 -24 -258 -27 -12 -3 -54 5 -92 18 l-70
23 -232 -18 c-192 -15 -313 -17 -683 -13 -691 8 -873 12 -968 26 -48 7 -95 10
-105 6 -9 -4 -195 -11 -412 -16 -405 -9 -659 -22 -765 -40 -57 -10 -387 -26
-692 -34 -79 -2 -158 -9 -175 -15 -20 -7 -42 -8 -55 -3 -12 4 -115 4 -230 0
-114 -4 -253 -5 -308 -2 -55 4 -200 10 -321 15 -179 6 -233 12 -280 28 -56 19
-219 44 -384 58 -41 4 -95 13 -120 20 -25 8 -133 25 -240 39 -214 28 -283 40
-344 62 -23 8 -106 21 -186 29 -80 8 -165 21 -190 29 -25 8 -101 21 -171 30
-69 8 -192 30 -275 50 -82 19 -169 35 -194 35 -25 0 -70 7 -100 15 -30 9 -89
21 -130 28 -41 8 -86 20 -100 27 -35 19 -103 29 -265 40 -165 10 -509 45 -650
65 -55 8 -174 19 -265 25 -91 5 -230 15 -310 21 -118 9 -176 8 -310 -5 -171
-16 -388 -25 -694 -28 l-178 -2 -21 24 c-11 14 -36 59 -55 100 -19 41 -56 118
-83 171 -26 52 -75 162 -109 244 -33 81 -65 154 -70 160 -6 7 -32 57 -59 111
-26 55 -69 130 -95 168 -25 38 -46 72 -46 76 0 4 -15 36 -34 71 -18 35 -37 80
-41 99 -4 19 -40 100 -80 180 -40 80 -76 155 -80 167 -3 12 -14 25 -24 28 -20
6 -33 33 -51 105 -7 25 -20 59 -29 75 -10 17 -21 42 -24 55 -4 14 -20 33 -36
42 -18 10 -41 38 -57 70 -14 29 -34 64 -44 78 -9 14 -26 53 -38 87 -11 34 -39
85 -63 115 -23 29 -55 82 -71 117 -17 36 -41 73 -54 83 -17 14 -24 29 -24 56
0 20 -9 56 -19 78 -10 23 -22 57 -26 75 -10 45 -69 199 -106 275 -16 33 -36
96 -44 140 -34 182 -78 453 -82 509 -5 58 -4 62 32 105 36 43 37 47 32 100 -4
31 -15 76 -25 100 -13 30 -22 79 -25 145 -6 103 -44 289 -78 383 -10 29 -19
76 -19 105 0 61 -50 391 -81 527 -11 52 -24 138 -29 190 -5 52 -18 128 -29
169 -11 41 -30 142 -42 225 -11 83 -32 198 -45 256 -13 58 -31 168 -40 245 -8
77 -28 196 -44 265 -46 194 -76 350 -130 675 -28 165 -59 327 -70 359 -11 33
-20 77 -20 99 0 22 -7 65 -15 96 -12 48 -50 342 -107 834 -8 73 -8 107 0 136
7 21 19 98 27 172 18 165 122 1522 170 2219 19 283 42 612 50 730 9 118 16
224 16 235 1 11 -4 115 -11 230 -17 296 6 594 58 740 13 39 28 111 33 160 5
50 11 110 14 135 2 25 9 128 15 230 21 354 51 765 60 845 6 44 15 145 20 225
6 80 17 208 25 285 7 77 19 268 25 425 6 157 16 317 22 355 6 39 12 122 14
185 2 63 12 147 21 187 15 65 15 84 2 215 -16 166 -16 523 1 708 6 69 13 163
16 210 7 96 52 254 86 300 20 28 20 31 5 48 -10 11 -17 35 -17 58 0 35 7 46
72 111 40 40 80 73 89 73 26 0 107 -49 204 -123 49 -38 116 -83 149 -99 36
-18 95 -64 146 -112 47 -45 101 -93 120 -106 19 -13 110 -97 201 -186 91 -89
176 -165 188 -169 11 -3 21 -12 21 -19 0 -18 38 -50 83 -71 21 -10 60 -44 88
-75 31 -35 82 -77 134 -109 46 -28 105 -74 132 -101 26 -28 77 -66 113 -86 93
-50 340 -238 444 -339 84 -82 307 -188 566 -270 58 -18 139 -48 180 -66 41
-17 100 -40 130 -51 30 -10 63 -27 75 -37 11 -10 36 -21 55 -25 46 -8 174 -69
212 -101 16 -14 41 -25 55 -25 15 0 35 -12 51 -30 15 -16 33 -30 40 -30 30 0
169 -66 206 -97 22 -18 46 -33 54 -33 24 0 139 -60 163 -86 12 -13 29 -24 37
-24 8 0 121 -56 251 -124 130 -69 272 -142 316 -162 44 -21 91 -46 104 -56 13
-10 36 -18 51 -18 15 0 33 -7 41 -16 17 -21 173 -99 226 -113 23 -6 55 -22 70
-35 15 -12 53 -35 83 -49 69 -34 117 -63 153 -93 16 -13 37 -24 47 -24 9 0 23
-7 30 -15 6 -8 22 -17 33 -21 48 -14 173 -77 194 -97 13 -11 23 -31 23 -43 0
-27 40 -60 125 -101 288 -142 418 -221 520 -314 45 -42 95 -79 111 -83 15 -4
45 -24 65 -44 21 -20 43 -41 49 -47 5 -5 18 -21 28 -34 11 -15 33 -26 58 -30
34 -5 40 -11 49 -41 6 -22 36 -61 80 -105 38 -39 82 -85 97 -103 14 -18 34
-32 45 -32 10 -1 29 -19 45 -45 14 -24 44 -55 65 -69 21 -15 62 -46 92 -70 29
-24 66 -47 82 -50 24 -5 29 -10 29 -36 0 -24 7 -35 35 -51 39 -23 55 -46 55
-78 0 -18 6 -21 43 -21 37 0 48 -6 82 -41 22 -22 58 -48 80 -58 22 -10 55 -35
74 -57 21 -23 65 -54 110 -76 42 -21 117 -67 168 -102 50 -36 107 -69 127 -74
19 -6 50 -22 69 -36 19 -14 39 -26 44 -26 6 0 44 -27 84 -60 134 -110 148
-120 162 -120 8 0 41 -21 73 -46 33 -25 79 -55 103 -65 53 -24 95 -58 131
-108 15 -21 41 -43 56 -49 16 -6 61 -23 99 -38 39 -15 77 -33 85 -40 39 -35
127 -101 142 -107 10 -3 27 -21 39 -39 26 -40 65 -66 144 -98 46 -18 76 -41
130 -97 60 -63 145 -121 178 -123 13 0 130 -86 152 -111 11 -12 63 -57 116
-100 91 -74 170 -156 234 -244 16 -22 63 -80 105 -130 42 -49 90 -110 106
-135 15 -25 45 -64 66 -87 21 -24 38 -47 38 -52 0 -5 -9 -30 -19 -54 -18 -42
-18 -46 -3 -52 49 -19 193 -24 421 -14 l246 9 70 34 c39 19 126 61 195 95 69
34 131 61 139 61 21 0 193 80 216 101 11 9 34 21 50 25 17 4 50 17 75 29 25
13 72 28 105 35 58 12 93 27 162 71 20 13 62 24 115 29 46 6 112 16 148 25 36
8 87 14 113 15 27 0 87 11 135 25 48 13 155 36 238 50 83 14 195 38 248 55 54
16 134 37 179 45 45 9 107 27 138 41 47 20 73 24 152 24 53 0 124 6 159 14 35
8 92 17 128 21 36 4 101 16 144 27 44 10 127 23 185 29 58 5 124 13 146 19 22
5 123 21 225 35 102 14 241 39 310 56 69 17 165 34 215 39 49 5 209 29 355 54
442 76 810 82 1404 26 111 -10 296 -26 413 -35 150 -11 253 -25 350 -46 76
-17 186 -34 244 -39 59 -5 126 -15 150 -23 33 -10 92 -13 234 -11 105 1 202 6
217 9 19 5 37 1 61 -14 19 -12 46 -21 60 -21 14 0 38 -5 54 -11 15 -6 116 -15
223 -20 202 -8 323 -26 375 -53 17 -9 39 -16 50 -16 23 0 329 -101 365 -120
14 -7 43 -12 65 -11 51 2 144 -17 172 -35 12 -8 40 -14 61 -14 21 0 74 -9 118
-21 43 -12 111 -27 149 -34 87 -17 158 -40 211 -71 33 -19 64 -26 170 -34 71
-6 172 -19 224 -30 52 -10 153 -26 223 -36 107 -15 134 -15 163 -5 33 12 38
11 73 -13 28 -20 50 -26 88 -26 28 0 112 -17 193 -40 88 -25 183 -45 249 -51
125 -12 169 -23 233 -55 26 -13 55 -24 65 -24 10 0 27 -6 38 -14 11 -7 34 -16
50 -20 17 -4 57 -20 89 -36 32 -17 69 -30 82 -30 44 0 179 -49 246 -90 37 -22
71 -40 76 -40 5 0 15 -7 22 -14 29 -36 95 -56 182 -56 82 0 89 -2 138 -35 59
-39 98 -44 146 -17 44 24 152 95 199 130 22 17 66 42 98 56 32 14 73 41 91 61
18 19 55 44 81 56 26 11 63 36 84 54 20 18 62 44 92 58 31 13 64 33 75 44 35
35 92 73 111 73 10 0 27 7 37 15 11 8 33 15 49 15 41 0 67 17 67 45 0 15 9 29
23 36 12 6 33 22 47 34 14 13 41 32 60 42 30 17 36 26 42 66 8 59 18 72 124
168 56 50 96 79 111 79 16 0 30 12 48 40 14 22 40 47 57 56 18 9 51 31 74 50
23 18 67 44 98 58 31 14 75 41 98 60 22 19 59 44 82 54 22 11 53 33 68 48 15
16 59 56 98 89 39 33 98 84 131 113 32 28 67 52 77 52 22 0 42 19 42 40 0 10
14 21 35 27 19 6 56 27 82 48 102 78 157 115 170 115 7 0 13 4 13 9 0 9 172
168 248 229 23 18 52 32 67 32 19 0 48 21 108 78 45 43 105 91 132 107 28 16
70 44 94 62 25 19 55 36 68 39 16 4 30 22 44 54 17 39 29 52 59 64 51 20 437
322 469 367 32 45 108 101 228 168 51 29 98 62 105 75 43 75 76 117 103 128
16 7 93 72 170 144 77 72 175 161 217 198 70 62 77 71 80 109 2 33 7 43 23 45
16 3 18 1 8 -9 -25 -26 -12 -30 25 -8 55 33 82 60 98 97 11 26 18 32 33 27 23
-7 93 51 117 97 8 15 20 28 28 28 7 0 49 32 92 70 43 39 133 110 199 158 66
48 138 105 160 128 28 28 51 43 78 47 47 7 67 24 151 119 37 42 83 89 104 104
63 48 133 117 148 147 13 24 20 27 43 22 43 -9 142 60 180 127 55 98 76 118
83 78 3 -18 10 -15 76 27 39 26 75 56 78 65 3 10 29 29 57 43 29 14 94 55 145
92 107 79 131 95 232 160 41 26 107 80 145 119 39 39 105 97 148 128 42 31 77
61 77 68 0 22 33 48 60 48 16 0 30 7 34 15 3 8 11 15 19 15 7 0 24 12 38 26
13 14 74 62 134 107 116 85 232 183 301 251 22 23 61 53 85 68 24 14 84 63
132 107 49 45 93 81 97 81 5 0 30 17 57 38 26 21 73 56 103 77 30 21 87 66
125 100 39 34 91 76 117 93 25 18 55 43 65 56 11 13 30 26 44 28 16 2 30 15
42 41 18 38 26 44 43 27 15 -15 74 25 74 50 0 11 10 36 23 55 17 27 27 33 45
28 29 -7 135 60 222 142 36 33 90 73 121 88 64 31 149 101 149 123 0 8 11 19
25 24 15 6 25 17 25 29 0 23 16 37 22 19 3 -8 18 -4 49 15 51 31 99 34 122 10z
m-323 -147 c0 -2 -7 -7 -16 -10 -8 -3 -12 -2 -9 4 6 10 25 14 25 6z m1100
-1406 c0 -5 -7 -10 -15 -10 -8 0 -15 5 -15 10 0 6 7 10 15 10 8 0 15 -4 15
-10z m-4940 -864 c0 -3 -4 -8 -10 -11 -5 -3 -10 -1 -10 4 0 6 5 11 10 11 6 0
10 -2 10 -4z m5180 -11450 c0 -3 -4 -8 -10 -11 -5 -3 -10 -1 -10 4 0 6 5 11
10 11 6 0 10 -2 10 -4z m-1447 -3811 c12 -12 14 -36 11 -117 -7 -153 -14 -207
-28 -215 -8 -5 -28 -34 -46 -65 -17 -32 -38 -58 -46 -58 -20 0 -29 -48 -13
-76 14 -28 3 -74 -20 -82 -9 -3 -11 0 -6 8 5 8 3 11 -6 8 -8 -3 -18 -24 -23
-49 -5 -24 -16 -48 -23 -54 -11 -8 -10 -15 3 -40 12 -23 14 -37 5 -60 -5 -16
-15 -52 -21 -80 -17 -79 -50 -153 -76 -170 -13 -8 -24 -22 -24 -29 0 -8 -5
-16 -11 -18 -9 -3 -9 -9 0 -25 6 -12 11 -44 11 -72 0 -48 -2 -52 -40 -76 -35
-22 -40 -30 -40 -63 0 -53 -48 -162 -72 -162 -20 0 -24 -20 -7 -37 22 -22 -39
-103 -88 -118 -28 -8 -29 -17 -3 -40 26 -24 25 -36 -5 -69 -19 -20 -23 -33
-19 -55 6 -27 2 -32 -42 -54 -27 -14 -76 -30 -109 -37 -33 -7 -65 -16 -72 -22
-6 -5 -38 -12 -70 -15 -32 -3 -70 -12 -85 -19 -15 -8 -37 -14 -50 -14 -13 0
-34 -7 -46 -16 -21 -14 -22 -14 -22 5 0 24 -17 26 -44 6 -11 -8 -28 -15 -38
-15 -10 0 -21 -7 -24 -15 -4 -8 -14 -15 -23 -15 -29 0 -33 13 -9 27 23 12 23
12 1 13 -11 0 -40 -16 -64 -36 -29 -24 -49 -34 -63 -30 -76 19 -77 19 -83 -3
-4 -18 -11 -21 -32 -16 -14 3 -41 1 -58 -4 -18 -5 -46 -6 -61 -2 -16 5 -51 4
-80 -2 -38 -8 -64 -8 -94 0 -48 13 -78 2 -137 -49 -30 -26 -35 -28 -43 -14
-15 26 -38 19 -39 -11 -2 -25 -2 -25 -6 -5 -6 30 -29 39 -51 20 -28 -24 -94
-38 -183 -39 -46 0 -125 -4 -176 -7 -76 -6 -95 -11 -107 -27 -13 -18 -29 -21
-138 -25 -91 -4 -128 -2 -143 7 -23 15 -61 17 -70 3 -8 -13 -52 -13 -60 0 -9
15 -25 2 -25 -19 0 -14 -11 -20 -42 -25 -24 -4 -85 -20 -136 -37 -70 -22 -98
-27 -112 -19 -35 19 -58 12 -62 -17 -3 -29 -28 -45 -28 -18 0 17 -11 16 -124
-9 -47 -11 -51 -14 -48 -40 3 -24 1 -26 -17 -17 -11 6 -35 11 -53 11 -53 0
-169 -28 -188 -45 -12 -11 -217 -65 -246 -65 -2 0 -22 -16 -43 -36 -39 -34
-40 -35 -65 -19 -24 16 -28 16 -79 -3 -29 -11 -105 -28 -167 -37 -63 -9 -134
-25 -157 -35 -41 -18 -42 -18 -60 2 -13 15 -25 18 -48 13 -16 -3 -62 -10 -102
-14 -39 -4 -82 -15 -95 -23 -17 -11 -62 -18 -149 -23 -68 -4 -142 -11 -164
-15 -23 -5 -57 -5 -79 0 -29 6 -49 5 -74 -6 -19 -8 -63 -14 -97 -14 -56 0 -66
-3 -83 -25 -16 -20 -21 -22 -26 -10 -8 21 -36 18 -66 -5 -31 -25 -40 -25 -40
-1 0 12 -9 20 -26 24 -39 7 -725 -12 -839 -23 -72 -7 -103 -15 -112 -27 -10
-13 -15 -14 -28 -3 -19 16 -285 8 -407 -11 -57 -9 -87 -10 -113 -2 -20 7 -37
7 -41 2 -14 -23 -268 -1 -312 28 -27 17 -52 11 -52 -12 0 -9 -5 -25 -11 -36
-10 -20 -11 -20 -30 -3 -19 17 -34 17 -379 -4 -197 -13 -373 -27 -391 -32 -17
-5 -83 -12 -145 -16 -77 -5 -118 -11 -125 -20 -7 -9 -32 -14 -64 -14 -28 0
-66 -5 -83 -11 -20 -7 -47 -7 -81 -1 -44 8 -55 7 -75 -9 -20 -16 -31 -17 -85
-8 -33 5 -72 14 -87 19 -40 16 -89 12 -146 -11 -45 -18 -68 -20 -151 -17 -103
5 -130 16 -111 45 23 37 63 54 186 78 70 13 138 31 150 39 13 8 55 20 93 26
154 26 312 69 600 165 44 14 111 36 149 48 38 11 88 34 112 50 37 24 63 31
191 47 81 11 164 20 183 20 22 0 52 12 79 30 24 17 52 30 62 30 9 0 37 8 61
19 24 10 82 26 128 36 57 12 113 32 167 62 46 24 111 50 145 57 35 8 97 28
138 46 41 18 115 41 165 51 49 10 106 25 125 32 61 24 103 38 161 52 31 8 91
30 135 50 76 35 154 61 279 93 33 8 80 25 105 37 76 38 273 117 315 126 22 5
67 22 100 38 70 34 147 64 227 86 31 9 69 26 84 37 22 18 41 22 103 22 68 1
81 4 125 33 27 18 66 36 85 39 20 4 60 17 89 30 29 13 87 33 130 45 114 32
154 49 148 65 -6 16 20 19 29 4 3 -5 27 -10 53 -10 35 0 52 5 65 20 13 16 29
20 76 20 32 0 78 7 101 15 23 8 58 15 78 15 41 0 165 23 272 49 41 11 113 22
160 26 52 4 100 14 123 26 21 10 48 19 61 19 13 0 41 6 62 14 22 7 64 16 94
20 30 4 75 13 100 20 25 8 65 20 90 28 35 10 46 18 48 36 3 18 8 22 20 16 37
-15 122 -17 144 -2 13 8 75 27 138 43 63 15 126 34 139 43 18 11 26 12 29 4 6
-20 48 -13 88 15 33 23 48 26 99 24 51 -2 70 3 119 28 31 17 87 36 124 42 37
6 83 20 103 30 46 23 148 49 193 49 29 0 39 5 48 25 9 20 19 25 47 25 20 0 88
12 151 26 87 20 119 31 137 50 12 13 32 24 45 24 48 0 160 38 187 64 15 14 37
26 48 26 12 0 24 4 27 8 3 5 19 7 36 4 23 -3 30 0 30 12 0 20 27 31 100 40 31
4 77 20 106 37 28 16 57 29 63 29 6 0 55 21 109 46 53 26 118 53 145 61 26 7
63 28 83 45 21 19 52 34 80 39 52 10 174 65 174 79 0 5 19 14 43 20 23 6 54
20 68 30 16 11 58 22 110 28 46 6 95 15 109 21 37 15 87 13 103 -4z m-13701
-938 c-7 -8 -7 -18 -2 -27 15 -23 12 -29 -17 -43 -37 -17 -77 -56 -92 -92 -12
-28 -47 -80 -98 -145 -13 -15 -23 -34 -23 -42 0 -37 -132 -218 -227 -312 -40
-39 -79 -89 -89 -111 -9 -22 -25 -52 -35 -67 -11 -14 -19 -37 -19 -51 0 -16
-11 -33 -32 -50 -18 -13 -78 -79 -133 -145 -55 -67 -105 -121 -111 -122 -21 0
-159 97 -248 176 -49 43 -119 103 -155 133 -36 29 -102 88 -146 131 -44 42
-132 122 -196 178 -121 105 -199 189 -199 215 0 20 17 25 98 33 37 3 84 10
104 15 20 5 117 15 215 23 142 10 186 17 218 34 23 11 59 23 80 27 22 4 74 15
115 26 41 10 147 25 235 34 179 18 236 29 281 56 18 11 72 28 122 39 49 10
107 27 128 36 22 10 80 27 129 39 112 28 110 28 97 12z m7354 -274 c-10 -10
-19 5 -10 18 6 11 8 11 12 0 2 -7 1 -15 -2 -18z m3339 -1103 c-3 -5 -15 -10
-26 -10 -11 0 -17 5 -14 10 3 6 15 10 26 10 11 0 17 -4 14 -10z m-1300 -330
c3 -5 1 -10 -4 -10 -6 0 -11 5 -11 10 0 6 2 10 4 10 3 0 8 -4 11 -10z m-5236
-269 c24 -15 -32 -45 -58 -31 -27 14 -26 19 2 30 29 11 39 12 56 1z m5996
-230 c3 -5 1 -12 -5 -16 -5 -3 -10 1 -10 9 0 18 6 21 15 7z m1819 -1458 c-8
-35 -24 -54 -24 -29 0 18 17 56 26 56 2 0 1 -12 -2 -27z m-1493 -2106 c-8 -8
-11 -7 -11 4 0 20 13 34 18 19 3 -7 -1 -17 -7 -23z"/>
<path d="M33410 30998 c-157 -170 -1867 -2098 -1909 -2152 -25 -32 -67 -79
-93 -104 -27 -25 -48 -50 -48 -55 0 -6 -16 -25 -35 -43 -19 -17 -35 -41 -35
-52 0 -12 -6 -19 -17 -18 -9 0 -117 -110 -267 -274 -138 -151 -299 -324 -358
-384 -73 -75 -108 -118 -108 -133 0 -13 -5 -23 -11 -23 -5 0 -16 -15 -24 -32
-8 -18 -30 -46 -49 -61 -48 -37 -116 -129 -116 -155 0 -15 -5 -20 -15 -16 -18
7 -32 -23 -17 -38 17 -17 -13 -68 -41 -68 -36 0 -85 -36 -106 -78 -11 -22 -36
-52 -56 -68 -74 -60 -198 -199 -193 -216 3 -7 -3 -17 -12 -23 -47 -29 -119
-84 -148 -115 -36 -37 -47 -48 -128 -123 -29 -26 -55 -59 -58 -73 -4 -13 -12
-24 -19 -24 -7 0 -34 -13 -59 -29 -25 -16 -59 -32 -77 -36 -21 -4 -40 -20 -60
-48 -16 -23 -46 -58 -67 -78 -22 -20 -47 -49 -58 -64 -10 -15 -31 -32 -46 -39
-36 -15 -264 -235 -284 -275 -10 -19 -24 -31 -36 -31 -12 0 -25 -10 -32 -25
-6 -14 -14 -25 -17 -25 -3 0 -7 -10 -8 -22 -1 -13 -6 -41 -12 -63 -21 -83 -23
-95 -17 -118 3 -13 29 -54 57 -92 28 -37 66 -93 83 -123 31 -56 90 -108 154
-138 28 -12 43 -13 87 -4 55 11 98 37 185 108 28 23 59 42 68 42 21 0 82 42
82 57 0 7 15 20 33 29 17 9 53 35 79 58 25 22 88 75 139 116 52 41 126 107
165 145 89 88 203 188 230 203 11 6 33 31 49 56 16 25 36 46 45 46 9 0 22 11
30 24 7 14 25 30 39 36 32 13 139 112 170 157 12 18 56 60 97 94 41 33 83 77
93 97 11 20 40 57 66 82 26 25 66 74 90 110 26 40 58 75 83 90 27 16 42 32 42
46 0 32 56 102 95 121 23 11 35 24 35 37 0 23 59 103 127 174 23 24 45 52 48
62 3 10 30 39 60 65 32 27 55 55 55 66 0 12 33 51 79 95 54 52 81 84 83 102 2
20 9 27 26 28 30 2 55 26 76 73 12 26 29 43 55 54 26 12 43 29 59 61 12 25 36
62 54 83 59 68 60 70 48 93 -10 20 -10 20 10 8 23 -14 16 -21 112 101 24 30
60 72 81 92 40 41 49 79 20 79 -12 1 4 21 48 63 73 69 92 97 82 123 -4 10 -2
15 4 11 5 -3 19 1 31 9 30 20 109 133 117 166 7 27 76 98 94 98 6 0 18 14 28
30 9 17 23 30 29 30 7 0 23 17 36 39 31 51 97 136 183 233 39 43 77 92 85 108
8 16 24 30 35 32 14 2 23 15 29 41 7 26 15 37 28 37 25 0 98 60 98 82 0 9 15
26 33 37 45 28 167 155 167 175 0 9 17 27 39 40 40 26 92 85 112 129 7 15 18
27 26 27 7 0 13 5 13 10 0 6 25 26 55 45 30 20 55 40 55 46 0 6 14 30 30 54
17 24 30 55 30 69 0 19 7 27 25 32 13 3 27 14 30 24 3 9 23 25 45 35 21 10 49
28 61 41 12 13 28 24 35 24 21 0 60 -55 72 -101 15 -56 29 -288 20 -320 -4
-13 -14 -44 -21 -69 -12 -40 -12 -48 1 -68 13 -20 13 -33 4 -86 -7 -35 -12
-80 -12 -100 0 -29 -4 -36 -20 -36 -15 0 -20 -7 -20 -25 0 -14 5 -25 10 -25 6
0 10 -15 10 -34 0 -19 5 -38 11 -42 16 -9 4 -177 -15 -215 -9 -18 -10 -29 -4
-29 15 0 4 -220 -13 -283 -12 -42 -11 -54 5 -99 19 -54 23 -145 8 -160 -7 -7
-5 -22 4 -43 11 -27 11 -35 -1 -51 -8 -12 -10 -23 -4 -30 6 -7 6 -22 -1 -39
-7 -18 -7 -39 -1 -61 6 -21 6 -32 0 -29 -5 4 -9 -3 -9 -14 0 -12 4 -21 9 -21
9 0 21 -112 26 -237 1 -40 5 -78 7 -85 3 -7 0 -119 -7 -248 -7 -136 -9 -240
-4 -246 6 -7 3 -28 -6 -54 -17 -49 -19 -80 -5 -80 19 0 22 -48 5 -74 -14 -21
-15 -33 -6 -79 9 -39 9 -67 0 -106 -6 -28 -8 -63 -5 -77 4 -14 2 -42 -5 -62
-7 -26 -8 -54 -1 -90 8 -44 7 -50 -4 -41 -11 9 -14 7 -14 -10 0 -12 7 -24 15
-27 22 -9 18 -36 -10 -74 -30 -41 -32 -66 -5 -75 30 -9 24 -75 -6 -75 -15 0
-19 -22 -6 -34 4 -4 8 -22 9 -39 1 -18 5 -46 8 -63 6 -25 3 -34 -13 -46 -30
-21 -35 -57 -18 -132 22 -93 20 -136 -8 -187 -17 -32 -25 -66 -29 -123 -5 -66
-10 -83 -31 -105 -16 -17 -28 -46 -35 -85 -15 -82 -14 -94 9 -101 26 -8 25
-26 -2 -60 -17 -22 -19 -31 -10 -45 9 -14 8 -21 -3 -30 -8 -7 -15 -18 -15 -24
0 -6 -9 -22 -20 -36 -26 -34 -25 -55 6 -95 l25 -34 -40 -40 c-33 -33 -37 -42
-26 -51 23 -19 31 -81 12 -95 -20 -15 -39 -94 -31 -133 3 -16 1 -63 -6 -103
-6 -41 -15 -107 -20 -148 -11 -80 -21 -101 -52 -101 -17 0 -19 -5 -14 -27 21
-89 19 -107 -12 -130 -37 -27 -48 -74 -27 -116 21 -42 19 -115 -5 -162 -24
-47 -24 -52 -6 -135 39 -170 46 -219 43 -305 -3 -68 0 -94 11 -107 21 -25 1
-158 -24 -158 -16 0 -19 -26 -5 -35 6 -3 2 -28 -9 -61 -15 -42 -17 -61 -9 -82
6 -15 8 -50 4 -79 -5 -45 -4 -52 13 -58 23 -7 37 -36 22 -45 -11 -7 170 -190
189 -190 6 0 21 -11 33 -25 20 -23 23 -24 45 -10 15 10 60 18 124 22 64 4 106
11 114 20 8 7 18 13 23 13 14 0 62 59 62 75 0 8 13 30 30 48 29 34 30 35 15
70 -8 20 -15 58 -15 85 0 27 -5 63 -11 81 -8 23 -8 44 -1 74 9 34 8 46 -5 66
-28 43 -34 81 -17 107 18 27 13 66 -18 136 -20 45 -21 50 -6 110 14 58 14 66
-3 106 -17 38 -17 54 -8 155 6 61 9 147 5 189 -4 57 -1 87 10 114 11 26 12 40
5 47 -16 16 -13 24 9 30 19 5 20 14 20 140 0 110 3 137 16 148 12 10 15 29 12
88 -2 42 -8 84 -12 94 -7 15 -5 18 10 15 15 -2 20 4 22 27 2 17 9 44 17 61 16
34 34 146 35 208 0 22 7 47 16 57 13 15 14 24 5 49 -9 26 -8 35 5 47 12 12 14
28 9 68 -6 43 -4 53 9 58 12 5 16 20 16 60 0 36 5 59 15 67 21 17 19 30 -5 30
-21 0 -27 15 -10 25 15 9 12 52 -5 69 -20 19 -19 28 3 24 13 -2 16 3 14 22 -9
79 12 231 37 273 17 27 20 41 12 50 -14 17 -2 87 15 87 9 0 11 21 7 93 -5 75
-3 99 11 125 20 38 13 72 -14 72 -18 0 -18 1 0 43 10 23 21 69 24 102 3 33 11
112 17 176 11 103 10 123 -4 167 -21 64 -21 69 2 77 22 7 36 35 23 44 -5 3
-12 94 -16 203 -4 108 -11 222 -16 254 -7 39 -6 70 1 95 8 26 8 42 0 57 -16
30 -14 84 5 121 11 22 14 43 9 64 -4 18 -6 73 -5 123 1 51 -3 94 -8 98 -5 3
-7 36 -4 75 3 49 0 83 -12 117 l-16 48 30 49 c16 27 30 50 30 53 0 2 -11 4
-24 4 -35 0 -40 16 -18 53 18 32 18 33 -1 70 -17 34 -18 43 -6 101 9 45 9 78
2 113 -7 38 -6 59 4 89 21 57 29 219 13 239 -16 19 -7 67 20 105 24 34 25 46
3 58 -16 9 -16 11 0 36 9 14 17 33 17 43 0 10 7 31 15 47 17 31 6 56 -23 56
-12 0 -13 3 -4 12 15 15 16 74 2 83 -18 11 -11 50 15 85 30 41 32 76 5 90 -27
14 -34 51 -20 96 8 22 9 39 3 43 -21 14 -22 41 -2 52 16 8 19 17 14 37 -4 15
-11 30 -17 33 -8 5 -7 35 1 102 12 94 12 95 -13 132 -14 20 -28 53 -32 74 -3
20 -17 52 -29 71 -13 19 -26 50 -30 68 -4 18 -15 37 -26 42 -10 6 -19 17 -19
26 0 8 -11 32 -25 53 -22 35 -31 41 -82 50 -95 18 -131 30 -137 46 -3 8 -1 17
4 20 6 4 6 11 0 18 -6 7 -18 22 -28 35 -13 18 -27 23 -63 24 -25 0 -55 -5 -67
-11 -33 -17 -70 -14 -77 8 -3 11 -31 38 -61 61 -31 23 -60 55 -66 70 -11 32
-67 80 -94 80 -10 0 -48 -33 -84 -72z m23 -7568 c-3 -11 -7 -20 -9 -20 -2 0
-4 9 -4 20 0 11 4 20 9 20 5 0 7 -9 4 -20z"/>
<path d="M3831 30459 c-73 -22 -199 -188 -271 -358 -51 -120 -50 -200 5 -221
22 -8 25 -15 25 -60 0 -65 20 -111 59 -139 36 -26 46 -60 56 -178 5 -58 13
-90 26 -107 10 -13 19 -29 19 -34 0 -5 7 -15 15 -22 10 -8 15 -31 15 -72 0
-44 7 -71 27 -111 l27 -52 7 -345 c4 -190 12 -478 18 -640 5 -162 10 -437 10
-611 0 -174 2 -327 5 -340 3 -13 10 -145 16 -294 6 -148 16 -313 21 -365 26
-232 29 -623 9 -925 -11 -172 -24 -651 -21 -803 1 -52 -3 -110 -8 -129 -7 -25
-7 -42 1 -56 7 -14 13 -182 19 -481 6 -380 11 -473 25 -531 9 -38 18 -96 19
-127 3 -62 31 -122 82 -170 65 -62 211 -96 284 -65 90 37 160 220 188 492 20
193 41 613 46 930 3 176 10 374 16 440 6 66 13 204 14 306 2 103 10 236 19
295 41 291 46 451 22 629 -25 180 -38 362 -35 505 1 74 -3 335 -9 580 -7 300
-8 457 -1 483 5 20 6 43 2 50 -12 20 -37 489 -35 655 2 104 -2 178 -13 233
-17 91 -20 284 -5 324 9 23 12 24 32 13 13 -7 25 -16 28 -19 3 -3 20 -14 38
-23 65 -33 413 -403 472 -501 19 -32 63 -86 96 -120 34 -34 69 -76 78 -94 10
-18 32 -41 50 -52 22 -12 43 -41 65 -84 24 -47 55 -86 114 -141 45 -42 91 -93
102 -113 16 -28 29 -37 54 -41 28 -4 36 -11 47 -41 11 -35 58 -112 103 -169
10 -14 24 -44 30 -65 14 -50 30 -75 38 -57 2 6 8 12 12 12 9 0 31 -45 31 -63
0 -19 147 -166 217 -217 34 -25 64 -55 68 -68 6 -23 293 -311 342 -343 15 -10
32 -38 42 -67 21 -63 59 -106 137 -161 34 -24 88 -70 119 -102 32 -33 70 -67
86 -76 18 -11 37 -38 54 -79 22 -52 38 -71 97 -118 38 -31 75 -56 83 -56 18 0
239 -275 290 -361 11 -18 30 -49 42 -69 16 -26 22 -51 23 -96 0 -48 5 -68 22
-90 32 -41 58 -62 98 -80 49 -21 80 -53 80 -82 0 -16 14 -38 39 -62 40 -38 80
-53 239 -86 82 -17 84 -17 177 5 65 16 100 31 116 47 37 40 50 115 56 330 5
190 5 204 -17 270 -12 38 -36 87 -51 108 -16 22 -29 50 -29 63 0 15 -6 23 -16
23 -9 0 -32 14 -51 31 -19 16 -62 43 -96 60 -68 33 -208 159 -219 199 -4 14
-44 68 -89 120 -44 52 -115 140 -157 195 -90 118 -353 399 -411 439 -22 16
-54 49 -70 75 -17 25 -51 66 -76 91 -26 25 -55 61 -65 80 -23 44 -207 234
-280 287 -30 23 -75 62 -100 87 -24 25 -49 46 -55 46 -5 0 -16 9 -22 19 -7 11
-43 43 -80 71 -119 90 -211 178 -218 208 -3 16 -28 53 -55 82 -28 30 -50 61
-50 70 0 8 -9 26 -20 40 -11 14 -20 32 -20 41 0 24 -57 96 -95 119 -19 12 -47
43 -61 71 -20 36 -35 51 -58 57 -23 6 -32 16 -39 42 -9 37 -63 120 -77 120
-30 0 -208 196 -224 246 -3 12 -27 43 -52 70 -75 80 -78 84 -94 113 -46 85
-92 142 -120 147 -18 4 -39 21 -60 50 -17 25 -44 52 -58 62 -15 9 -35 27 -45
39 -9 12 -45 42 -80 68 -45 33 -70 61 -92 102 -20 37 -47 68 -75 88 -40 28
-51 44 -66 103 -2 7 -22 12 -53 12 -47 0 -50 2 -56 30 -5 24 -25 40 -104 90
-54 33 -102 60 -106 60 -11 0 -142 87 -150 99 -3 6 -23 15 -43 21 -21 6 -67
36 -105 70 -58 51 -74 60 -107 60 -31 0 -43 6 -64 32 -22 29 -30 32 -88 35
-35 1 -78 -2 -97 -8z"/>
<path d="M14024 23910 c-28 -4 -80 -17 -115 -28 -35 -12 -86 -24 -114 -27 -27
-3 -137 -20 -243 -37 l-192 -31 -96 -62 c-115 -75 -143 -110 -151 -191 -3 -32
-11 -68 -17 -79 -6 -11 -13 -84 -16 -162 l-5 -141 -60 -55 c-35 -32 -101 -77
-159 -107 -58 -30 -126 -75 -165 -110 -36 -33 -83 -68 -103 -79 -99 -50 -443
-406 -506 -524 -47 -87 -126 -220 -178 -301 -22 -33 -47 -80 -57 -105 -10 -25
-22 -50 -26 -56 -5 -5 -14 -35 -21 -65 -7 -30 -35 -95 -63 -143 -59 -103 -82
-168 -92 -257 -3 -36 -20 -119 -36 -185 -16 -66 -38 -181 -49 -255 -12 -74
-25 -152 -31 -172 -13 -49 -12 -665 2 -748 5 -36 14 -117 19 -180 8 -111 10
-119 69 -250 33 -74 61 -146 61 -160 1 -14 14 -50 30 -80 17 -30 30 -63 30
-72 0 -10 14 -60 30 -111 17 -52 30 -112 30 -134 0 -22 11 -76 24 -121 14 -45
30 -119 37 -164 14 -102 23 -125 47 -132 27 -9 66 -86 97 -196 38 -134 70
-197 131 -256 40 -39 56 -63 65 -98 14 -56 58 -120 96 -138 15 -7 48 -41 73
-75 35 -48 58 -68 106 -92 34 -17 69 -31 77 -31 9 0 31 -9 49 -20 18 -11 40
-20 48 -20 9 0 34 -9 55 -21 22 -11 63 -29 90 -40 28 -10 76 -39 108 -63 51
-38 76 -48 181 -74 66 -17 171 -38 231 -47 61 -9 166 -32 234 -51 69 -18 142
-34 163 -34 20 0 58 -7 84 -16 27 -9 61 -13 82 -10 21 3 107 11 192 16 326 22
589 54 727 89 43 10 110 24 150 31 53 8 90 22 139 52 36 22 86 47 109 55 24 8
49 21 56 29 6 8 19 14 28 14 22 0 235 100 322 151 39 22 106 69 148 104 43 35
104 77 137 93 32 17 93 62 135 99 41 38 93 80 115 93 21 13 65 48 98 77 32 30
69 61 82 70 14 9 24 23 22 32 -1 9 44 61 103 121 59 58 122 130 142 160 20 30
54 78 77 105 22 28 45 66 50 85 11 41 78 156 125 215 45 57 152 265 166 322 6
26 29 87 51 135 33 74 41 105 54 215 8 70 17 135 19 143 3 8 14 98 25 198 20
182 20 184 1 265 -11 45 -22 109 -26 142 -4 33 -16 89 -27 125 -10 36 -28 119
-39 185 -18 112 -32 160 -96 325 -14 35 -31 101 -39 145 -8 49 -22 90 -34 105
-27 32 -112 209 -135 280 -10 30 -30 80 -45 110 -31 63 -73 185 -75 216 -1 27
-49 98 -80 118 -12 8 -25 29 -29 47 -3 18 -17 46 -29 63 -13 17 -27 43 -30 58
-10 39 -54 86 -106 113 -58 29 -112 86 -144 151 -25 50 -60 92 -107 129 -40
32 -135 139 -202 228 -34 45 -123 145 -198 222 -153 157 -290 308 -366 405
-88 111 -199 188 -309 214 -16 4 -37 14 -45 21 -24 21 -191 85 -222 85 -15 0
-62 14 -105 31 -102 41 -230 77 -307 85 -33 4 -85 15 -115 25 -56 20 -126 22
-217 9z m1118 -2100 c68 -7 122 -19 158 -35 30 -13 80 -35 111 -48 31 -14 74
-40 95 -60 53 -47 154 -117 170 -117 7 0 28 -13 46 -28 18 -16 49 -34 68 -41
19 -6 56 -33 81 -59 25 -26 79 -69 119 -97 110 -74 120 -88 175 -236 27 -73
60 -147 72 -164 45 -62 73 -129 84 -198 5 -40 21 -126 34 -192 13 -66 26 -158
29 -205 4 -47 12 -120 18 -163 15 -98 2 -167 -52 -287 -21 -47 -49 -114 -63
-150 -40 -102 -93 -203 -116 -224 -11 -11 -21 -25 -21 -32 0 -7 -13 -28 -28
-46 -16 -18 -42 -55 -57 -83 -58 -101 -104 -162 -144 -188 -22 -15 -83 -65
-133 -111 -51 -46 -112 -95 -135 -110 -24 -14 -43 -31 -43 -36 0 -18 -64 -82
-103 -101 -21 -11 -76 -48 -121 -83 -44 -34 -121 -84 -171 -110 -49 -27 -113
-64 -141 -83 -28 -18 -56 -33 -62 -33 -7 0 -49 -21 -94 -46 -51 -28 -120 -55
-178 -71 -52 -13 -145 -40 -207 -59 -170 -53 -240 -63 -463 -70 l-205 -7 -160
41 c-88 22 -187 43 -220 47 -33 4 -105 22 -160 42 -55 19 -148 47 -206 63
-158 41 -322 114 -359 158 -35 43 -87 148 -99 202 -5 21 -24 58 -44 82 -62 77
-155 292 -202 471 -14 51 -43 142 -65 203 -22 60 -45 138 -50 173 -6 35 -19
80 -30 101 -28 54 -59 174 -67 252 -5 62 -4 70 19 100 29 39 78 128 78 144 0
6 18 35 40 64 22 29 40 62 40 72 0 10 6 21 14 24 8 3 17 17 21 32 15 64 131
241 219 336 25 27 46 53 46 56 0 4 19 20 43 35 23 16 68 53 99 83 76 72 206
163 298 208 41 20 83 43 93 52 10 9 47 19 82 23 71 9 364 102 490 156 44 19
103 41 130 50 28 8 72 26 98 40 26 13 74 29 105 34 57 11 143 43 214 80 28 14
73 22 174 30 96 7 151 16 187 31 99 40 282 97 314 97 18 1 79 -4 135 -9z"/>
<path d="M14365 21193 c-47 -6 -313 -122 -385 -169 -36 -23 -81 -58 -99 -78
-19 -20 -41 -36 -48 -36 -36 0 -230 -206 -273 -290 -16 -30 -49 -82 -74 -114
-26 -32 -49 -70 -52 -83 -4 -13 -4 -112 -1 -221 5 -220 16 -275 67 -330 16
-18 30 -39 30 -47 0 -19 256 -292 291 -310 15 -8 55 -15 88 -15 43 0 70 -6 96
-22 l37 -21 141 23 c116 18 148 27 177 49 19 14 38 25 42 24 4 -2 12 6 17 16
14 26 76 48 183 67 122 21 153 42 227 155 77 117 97 171 116 315 20 154 32
444 18 444 -17 0 -52 92 -64 171 -7 49 -25 101 -51 154 -22 43 -46 100 -54
125 -15 52 -68 118 -117 149 -44 27 -231 53 -312 44z"/>
<path d="M26700 23341 c-8 -5 -82 -12 -165 -16 -96 -5 -168 -13 -200 -24 -38
-13 -59 -14 -87 -7 -52 13 -106 -5 -151 -51 -20 -20 -37 -40 -37 -45 0 -5 -12
-26 -26 -48 -15 -22 -35 -70 -45 -107 -32 -113 -125 -188 -235 -188 -57 0 -63
-2 -96 -38 -19 -20 -43 -37 -53 -37 -23 0 -120 -47 -136 -66 -6 -8 -20 -14
-29 -14 -10 0 -31 -11 -47 -23 -15 -13 -50 -36 -78 -51 -67 -36 -245 -192
-258 -226 -9 -25 -17 -29 -69 -34 -32 -4 -58 -11 -58 -16 0 -5 -26 -37 -57
-71 -32 -34 -67 -77 -78 -95 -11 -19 -54 -78 -96 -132 -42 -54 -84 -114 -94
-133 -10 -18 -43 -61 -75 -94 -46 -48 -58 -69 -64 -105 -8 -51 -81 -180 -102
-180 -8 0 -14 -10 -14 -24 0 -13 -7 -29 -15 -36 -8 -7 -15 -18 -15 -25 0 -7
-20 -31 -43 -52 -51 -44 -61 -60 -87 -145 -13 -43 -16 -66 -9 -74 7 -9 5 -16
-10 -24 -12 -6 -21 -17 -21 -25 0 -8 -9 -20 -19 -27 -11 -8 -31 -44 -45 -81
-14 -36 -50 -115 -80 -174 -38 -73 -61 -132 -70 -180 -8 -45 -25 -91 -44 -120
-33 -52 -52 -133 -52 -223 0 -44 -6 -63 -27 -95 -22 -31 -29 -57 -35 -115 -9
-96 -22 -167 -38 -205 -15 -36 -17 -162 -3 -190 7 -14 5 -61 -9 -160 -14 -106
-17 -178 -13 -295 2 -85 4 -197 4 -248 0 -52 4 -99 10 -106 11 -13 32 -99 52
-211 6 -33 15 -84 21 -113 5 -29 22 -77 38 -107 15 -29 31 -67 35 -84 4 -17
11 -33 16 -36 5 -4 9 -18 9 -33 0 -15 13 -55 29 -88 18 -37 32 -88 36 -128 5
-46 15 -77 31 -99 13 -18 32 -45 43 -62 34 -52 65 -95 109 -150 23 -29 42 -58
42 -64 0 -6 10 -16 23 -22 12 -6 65 -53 118 -103 242 -229 345 -311 405 -322
30 -6 74 -44 101 -86 14 -23 74 -54 149 -77 39 -11 77 -27 83 -35 6 -7 36 -17
66 -21 30 -3 64 -14 77 -24 54 -43 213 -99 325 -115 23 -3 58 -17 78 -30 30
-21 51 -25 152 -30 65 -4 161 -14 213 -23 52 -9 121 -16 154 -15 37 1 66 -4
80 -13 25 -18 59 -19 161 -1 44 8 127 17 185 21 63 5 124 15 153 26 31 12 73
19 120 19 113 1 193 16 257 49 33 17 70 31 84 31 14 0 27 4 30 9 3 4 31 11 62
15 34 4 68 15 87 30 40 29 113 66 131 66 7 0 19 7 26 15 7 8 21 15 32 15 11 0
61 18 112 41 50 22 116 49 148 58 31 10 70 28 86 40 17 11 45 21 64 21 44 0
59 11 72 52 9 26 24 40 68 63 32 17 70 42 85 56 16 14 49 33 74 43 26 9 76 44
118 81 39 36 76 65 81 65 6 0 37 24 69 54 32 30 72 57 89 61 32 7 82 56 82 81
0 7 13 20 29 28 15 8 43 37 60 64 17 27 40 57 51 67 11 10 20 24 20 32 0 7 9
13 19 13 27 0 61 47 61 84 0 27 8 48 52 138 4 10 8 58 8 107 0 55 4 92 11 97
31 19 103 239 100 307 0 20 3 37 8 37 16 0 31 62 43 182 9 97 15 123 33 142
16 17 25 51 39 147 10 68 24 140 31 159 10 28 10 44 -1 79 -7 25 -11 48 -8 53
3 4 5 142 5 306 -1 351 -19 579 -50 638 -25 47 -26 67 -4 145 l17 60 -26 24
c-18 16 -28 41 -37 87 -6 34 -29 99 -51 143 -44 90 -74 179 -95 276 -10 48
-28 87 -65 142 -36 55 -50 86 -50 111 0 19 -16 67 -35 107 -19 41 -35 79 -35
85 0 6 -6 17 -14 23 -8 7 -29 55 -48 109 -32 94 -51 135 -172 367 -44 84 -56
117 -53 140 3 18 -2 45 -12 65 -42 87 -105 183 -149 228 -26 27 -63 66 -83 88
-20 21 -58 55 -84 74 -26 19 -72 58 -100 86 -58 57 -294 226 -364 261 -25 13
-63 23 -86 23 -22 0 -45 4 -50 9 -20 18 -83 31 -199 42 -80 7 -132 17 -157 30
-22 11 -59 19 -87 19 -26 0 -52 4 -57 9 -11 11 -121 29 -240 41 -45 4 -95 15
-112 24 -37 18 -33 18 -53 7z m137 -2247 c28 -4 48 -2 57 5 12 10 19 8 35 -8
16 -16 34 -21 71 -21 27 0 96 -13 152 -29 57 -15 133 -34 170 -41 46 -8 73
-19 89 -36 12 -13 31 -24 42 -24 10 0 47 -27 81 -60 47 -45 70 -60 91 -60 16
0 52 -13 82 -30 29 -16 58 -30 65 -30 7 0 21 -14 30 -30 9 -16 37 -44 63 -62
25 -18 54 -47 65 -66 11 -18 35 -39 56 -48 19 -8 49 -30 66 -49 16 -19 34 -35
40 -35 5 0 29 -9 53 -20 57 -26 151 -47 245 -55 103 -8 117 -12 124 -32 3 -10
13 -29 21 -43 11 -17 15 -51 14 -110 -1 -115 -2 -110 21 -110 11 0 20 -4 20
-9 0 -5 3 -17 6 -26 4 -10 2 -15 -7 -13 -17 4 -34 -78 -48 -225 -9 -91 -8
-115 4 -144 9 -20 13 -38 10 -41 -3 -3 -5 0 -5 7 0 7 -4 9 -10 6 -5 -3 -10
-30 -10 -60 0 -29 -6 -66 -14 -82 -37 -73 -48 -113 -42 -146 5 -29 2 -40 -20
-66 -24 -28 -25 -36 -17 -70 8 -29 5 -69 -12 -169 -18 -106 -26 -136 -47 -161
-30 -34 -68 -129 -68 -166 0 -28 -20 -75 -32 -75 -4 0 -8 -10 -8 -22 0 -13
-14 -36 -31 -53 -36 -36 -63 -64 -107 -116 -19 -21 -42 -41 -52 -44 -10 -3
-20 -16 -22 -27 -2 -15 -13 -25 -38 -31 -42 -11 -60 -24 -60 -46 0 -21 -63
-71 -89 -71 -37 0 -73 -20 -129 -74 -73 -68 -80 -72 -193 -91 -122 -21 -126
-22 -132 -46 -3 -12 -10 -18 -16 -15 -5 4 -40 -14 -78 -39 -37 -25 -79 -48
-93 -51 -14 -3 -36 -12 -50 -20 -14 -8 -44 -25 -67 -36 -24 -12 -43 -28 -43
-35 0 -15 -16 -17 -25 -3 -10 16 -51 11 -69 -9 -11 -12 -30 -18 -58 -18 -26 0
-46 -6 -52 -16 -8 -10 -38 -17 -91 -22 -44 -3 -100 -13 -125 -21 -61 -19 -218
-33 -375 -34 -71 0 -147 -4 -167 -9 -31 -7 -40 -5 -54 10 -15 17 -26 19 -74
13 -47 -5 -66 -2 -120 21 -52 22 -96 30 -220 42 -143 14 -164 18 -265 59 -60
25 -126 47 -145 50 -26 4 -42 15 -58 40 -12 19 -28 34 -36 34 -8 0 -66 39
-131 86 -64 47 -133 93 -153 101 -48 20 -71 40 -87 80 -8 18 -21 33 -29 33 -9
0 -23 12 -33 28 -10 15 -49 59 -88 97 -92 91 -150 203 -170 330 -8 48 -22 99
-32 114 -26 40 -33 464 -8 573 13 58 14 84 6 113 -16 58 -1 76 58 74 53 -2
119 29 216 100 28 21 69 49 91 64 29 18 50 42 68 79 38 77 123 181 181 219 67
44 133 106 162 152 13 20 30 37 38 37 8 0 39 22 68 48 30 27 73 59 95 72 30
17 48 37 63 70 14 31 39 61 75 89 30 23 54 46 54 51 0 5 14 11 30 15 17 4 30
11 30 16 0 5 16 9 35 9 20 0 48 6 64 14 38 20 101 92 101 116 0 13 14 27 43
41 23 12 57 35 75 50 18 16 37 29 43 29 6 0 25 11 42 24 18 13 55 30 82 39 28
8 76 24 107 36 32 12 74 21 94 21 20 0 50 7 67 15 97 44 142 55 198 49 37 -4
59 -2 63 5 4 6 17 11 29 11 12 1 33 7 47 15 14 8 34 13 45 10 11 -2 39 -7 62
-11z"/>
<path d="M26515 20569 c-116 -16 -339 -153 -380 -233 -15 -29 -30 -42 -52 -48
-18 -5 -54 -30 -80 -56 -56 -54 -97 -149 -109 -252 -4 -34 -14 -68 -22 -76
-13 -13 -13 -23 -3 -67 6 -28 16 -110 22 -182 11 -135 34 -215 64 -215 8 0 21
-15 29 -32 18 -44 125 -144 208 -197 37 -23 73 -55 80 -69 7 -15 26 -33 42
-41 37 -17 139 -30 246 -31 47 0 120 -6 162 -14 48 -8 91 -11 115 -5 67 14
137 41 162 63 61 54 182 204 198 246 10 25 28 60 40 79 14 21 23 49 23 72 0
35 3 39 25 39 28 0 32 12 10 30 -18 15 -19 43 -4 72 8 14 8 27 1 42 -6 11 -16
55 -22 96 -6 41 -17 104 -25 140 -8 36 -15 77 -15 91 0 14 -12 44 -27 65 -76
111 -94 143 -109 194 -8 30 -31 79 -50 107 -19 29 -34 59 -34 66 0 26 -72 86
-109 93 -20 3 -46 12 -58 20 -25 16 -225 18 -328 3z m672 -541 c-3 -7 -5 -2
-5 12 0 14 2 19 5 13 2 -7 2 -19 0 -25z"/>
<path d="M31945 15870 c-4 -6 5 -10 19 -10 14 0 26 5 26 10 0 6 -9 10 -19 10
-11 0 -23 -4 -26 -10z"/>
<path d="M33304 11686 c-8 -22 3 -33 18 -18 9 9 9 15 0 24 -9 9 -13 7 -18 -6z"/>
<path d="M34947 15783 c-4 -3 -7 -12 -7 -20 0 -17 26 -17 33 1 8 21 -11 35
-26 19z"/>
<path d="M34740 15135 c0 -8 7 -15 15 -15 8 0 15 7 15 15 0 8 -7 15 -15 15 -8
0 -15 -7 -15 -15z"/>
<path d="M34600 14760 c0 -16 4 -30 9 -30 12 0 24 37 16 50 -12 20 -25 10 -25
-20z"/>
<path d="M34437 33785 c-4 -8 -2 -17 4 -21 12 -7 41 15 33 27 -8 14 -31 11
-37 -6z"/>
<path d="M38106 17444 c-4 -11 0 -15 16 -12 12 2 23 9 26 16 6 18 -35 15 -42
-4z"/>
<path d="M36680 14260 c0 -5 11 -10 25 -10 14 0 25 5 25 10 0 6 -11 10 -25 10
-14 0 -25 -4 -25 -10z"/>
<path d="M34766 13114 c-15 -47 -25 -88 -22 -91 11 -11 35 7 52 38 19 37 25
130 9 136 -6 2 -23 -35 -39 -83z"/>
</g>
</svg>
